  0
SECTION
  2
HEADER
  9
$ACADVER
  1
AC1015
  9
$ACADMAINTVER
 70
     6
  9
$DWGCODEPAGE
  3
ANSI_1252
  9
$INSBASE
 10
0.0
 20
0.0
 30
0.0
  9
$EXTMIN
 10
-24.9840043065
 20
-12.4840043065
 30
0.0
  9
$EXTMAX
 10
24.9840043065
 20
12.4840043065
 30
0.0
  9
$LIMMIN
 10
0.0
 20
0.0
  9
$LIMMAX
 10
420.0
 20
297.0
  9
$ORTHOMODE
 70
     0
  9
$REGENMODE
 70
     1
  9
$FILLMODE
 70
     1
  9
$QTEXTMODE
 70
     0
  9
$MIRRTEXT
 70
     1
  9
$LTSCALE
 40
1.0
  9
$ATTMODE
 70
     1
  9
$TEXTSIZE
 40
0.3175
  9
$TRACEWID
 40
1.0
  9
$TEXTSTYLE
  7
Standard
  9
$CLAYER
  8
0
  9
$CELTYPE
  6
ByLayer
  9
$CECOLOR
 62
   256
  9
$CELTSCALE
 40
1.0
  9
$DISPSILH
 70
     0
  9
$DIMSCALE
 40
1.0
  9
$DIMASZ
 40
0.3302
  9
$DIMEXO
 40
0.127
  9
$DIMDLI
 40
3.75
  9
$DIMRND
 40
0.0
  9
$DIMDLE
 40
0.0
  9
$DIMEXE
 40
0.3175
  9
$DIMTP
 40
0.0
  9
$DIMTM
 40
0.0
  9
$DIMTXT
 40
0.3175
  9
$DIMCEN
 40
2.5
  9
$DIMTSZ
 40
0.0
  9
$DIMTOL
 70
     0
  9
$DIMLIM
 70
     0
  9
$DIMTIH
 70
     1
  9
$DIMTOH
 70
     1
  9
$DIMSE1
 70
     0
  9
$DIMSE2
 70
     0
  9
$DIMTAD
 70
     0
  9
$DIMZIN
 70
     1
  9
$DIMBLK
  1

  9
$DIMASO
 70
     1
  9
$DIMSHO
 70
     1
  9
$DIMPOST
  1

  9
$DIMAPOST
  1

  9
$DIMALT
 70
     0
  9
$DIMALTD
 70
     3
  9
$DIMALTF
 40
0.3937007874
  9
$DIMLFAC
 40
1.0
  9
$DIMTOFL
 70
     1
  9
$DIMTVP
 40
0.0
  9
$DIMTIX
 70
     0
  9
$DIMSOXD
 70
     0
  9
$DIMSAH
 70
     0
  9
$DIMBLK1
  1

  9
$DIMBLK2
  1

  9
$DIMSTYLE
  2
ISO-25
  9
$DIMCLRD
 70
     0
  9
$DIMCLRE
 70
     0
  9
$DIMCLRT
 70
     0
  9
$DIMTFAC
 40
1.0
  9
$DIMGAP
 40
0.1524
  9
$DIMJUST
 70
     0
  9
$DIMSD1
 70
     0
  9
$DIMSD2
 70
     0
  9
$DIMTOLJ
 70
     0
  9
$DIMTZIN
 70
     1
  9
$DIMALTZ
 70
     0
  9
$DIMALTTZ
 70
     0
  9
$DIMUPT
 70
     0
  9
$DIMDEC
 70
     2
  9
$DIMTDEC
 70
     2
  9
$DIMALTU
 70
     2
  9
$DIMALTTD
 70
     3
  9
$DIMTXSTY
  7
Standard
  9
$DIMAUNIT
 70
     0
  9
$DIMADEC
 70
     2
  9
$DIMALTRND
 40
0.0
  9
$DIMAZIN
 70
     0
  9
$DIMDSEP
 70
    44
  9
$DIMATFIT
 70
     3
  9
$DIMFRAC
 70
     0
  9
$DIMLDRBLK
  1

  9
$DIMLUNIT
 70
     2
  9
$DIMLWD
 70
    -2
  9
$DIMLWE
 70
    -2
  9
$DIMTMOVE
 70
     0
  9
$LUNITS
 70
     2
  9
$LUPREC
 70
     2
  9
$SKETCHINC
 40
1.0
  9
$FILLETRAD
 40
10.0
  9
$AUNITS
 70
     0
  9
$AUPREC
 70
     2
  9
$MENU
  1
.
  9
$ELEVATION
 40
0.0
  9
$PELEVATION
 40
0.0
  9
$THICKNESS
 40
0.0
  9
$LIMCHECK
 70
     0
  9
$CHAMFERA
 40
0.0
  9
$CHAMFERB
 40
0.0
  9
$CHAMFERC
 40
0.0
  9
$CHAMFERD
 40
0.0
  9
$SKPOLY
 70
     0
  9
$TDCREATE
 40
2458671.696285313
  9
$TDUCREATE
 40
2458671.467118646
  9
$TDUPDATE
 40
2458671.696712292
  9
$TDUUPDATE
 40
2458671.467545625
  9
$TDINDWG
 40
0.0000000116
  9
$TDUSRTIMER
 40
0.0000000116
  9
$USRTIMER
 70
     1
  9
$ANGBASE
 50
0.0
  9
$ANGDIR
 70
     0
  9
$PDMODE
 70
     0
  9
$PDSIZE
 40
-1.0
  9
$PLINEWID
 40
0.0
  9
$SPLFRAME
 70
     0
  9
$SPLINETYPE
 70
     6
  9
$SPLINESEGS
 70
     8
  9
$HANDSEED
  5
383
  9
$SURFTAB1
 70
     6
  9
$SURFTAB2
 70
     6
  9
$SURFTYPE
 70
     6
  9
$SURFU
 70
     6
  9
$SURFV
 70
     6
  9
$UCSBASE
  2

  9
$UCSNAME
  2

  9
$UCSORG
 10
0.0
 20
0.0
 30
0.0
  9
$UCSXDIR
 10
1.0
 20
0.0
 30
0.0
  9
$UCSYDIR
 10
0.0
 20
1.0
 30
0.0
  9
$UCSORTHOREF
  2

  9
$UCSORTHOVIEW
 70
     0
  9
$UCSORGTOP
 10
0.0
 20
0.0
 30
0.0
  9
$UCSORGBOTTOM
 10
0.0
 20
0.0
 30
0.0
  9
$UCSORGLEFT
 10
0.0
 20
0.0
 30
0.0
  9
$UCSORGRIGHT
 10
0.0
 20
0.0
 30
0.0
  9
$UCSORGFRONT
 10
0.0
 20
0.0
 30
0.0
  9
$UCSORGBACK
 10
0.0
 20
0.0
 30
0.0
  9
$PUCSBASE
  2

  9
$PUCSNAME
  2

  9
$PUCSORG
 10
0.0
 20
0.0
 30
0.0
  9
$PUCSXDIR
 10
1.0
 20
0.0
 30
0.0
  9
$PUCSYDIR
 10
0.0
 20
1.0
 30
0.0
  9
$PUCSORTHOREF
  2

  9
$PUCSORTHOVIEW
 70
     0
  9
$PUCSORGTOP
 10
0.0
 20
0.0
 30
0.0
  9
$PUCSORGBOTTOM
 10
0.0
 20
0.0
 30
0.0
  9
$PUCSORGLEFT
 10
0.0
 20
0.0
 30
0.0
  9
$PUCSORGRIGHT
 10
0.0
 20
0.0
 30
0.0
  9
$PUCSORGFRONT
 10
0.0
 20
0.0
 30
0.0
  9
$PUCSORGBACK
 10
0.0
 20
0.0
 30
0.0
  9
$USERI1
 70
     0
  9
$USERI2
 70
     0
  9
$USERI3
 70
     0
  9
$USERI4
 70
     0
  9
$USERI5
 70
     0
  9
$USERR1
 40
0.0
  9
$USERR2
 40
0.0
  9
$USERR3
 40
0.0
  9
$USERR4
 40
0.0
  9
$USERR5
 40
0.0
  9
$WORLDVIEW
 70
     1
  9
$SHADEDGE
 70
     3
  9
$SHADEDIF
 70
    70
  9
$TILEMODE
 70
     1
  9
$MAXACTVP
 70
    64
  9
$PINSBASE
 10
0.0
 20
0.0
 30
0.0
  9
$PLIMCHECK
 70
     0
  9
$PEXTMIN
 10
1.0000000000E+20
 20
1.0000000000E+20
 30
1.0000000000E+20
  9
$PEXTMAX
 10
-1.0000000000E+20
 20
-1.0000000000E+20
 30
-1.0000000000E+20
  9
$PLIMMIN
 10
0.0
 20
0.0
  9
$PLIMMAX
 10
420.0
 20
297.0
  9
$UNITMODE
 70
     0
  9
$VISRETAIN
 70
     1
  9
$PLINEGEN
 70
     0
  9
$PSLTSCALE
 70
     1
  9
$TREEDEPTH
 70
  3020
  9
$CMLSTYLE
  2
Standard
  9
$CMLJUST
 70
     0
  9
$CMLSCALE
 40
20.0
  9
$PROXYGRAPHICS
 70
     1
  9
$MEASUREMENT
 70
     1
  9
$CELWEIGHT
370
    -1
  9
$ENDCAPS
280
     0
  9
$JOINSTYLE
280
     0
  9
$LWDISPLAY
290
     1
  9
$INSUNITS
 70
     4
  9
$HYPERLINKBASE
  1

  9
$STYLESHEET
  1

  9
$XEDIT
290
     1
  9
$CEPSNTYPE
380
     0
  9
$PSTYLEMODE
290
     1
  9
$FINGERPRINTGUID
  2
{d4bc7a44-7c09-425d-b58e-ee7684023414}
  9
$VERSIONGUID
  2
{FAEB1C32-E019-11D5-929B-00C0DF256EC4}
  9
$EXTNAMES
290
     1
  9
$PSVPSCALE
 40
0.0
  9
$OLESTARTUP
290
     0
  0
ENDSEC
  0
SECTION
  2
CLASSES
  0
CLASS
  1
ACDBDICTIONARYWDFLT
  2
AcDbDictionaryWithDefault
  3
ObjectDBX Classes
 90
        0
280
     0
281
     0
  0
CLASS
  1
VISUALSTYLE
  2
AcDbVisualStyle
  3
ObjectDBX Classes
 90
     4095
280
     0
281
     0
  0
CLASS
  1
MATERIAL
  2
AcDbMaterial
  3
ObjectDBX Classes
 90
     1153
280
     0
281
     0
  0
CLASS
  1
SCALE
  2
AcDbScale
  3
ObjectDBX Classes
 90
     1153
280
     0
281
     0
  0
CLASS
  1
TABLESTYLE
  2
AcDbTableStyle
  3
ObjectDBX Classes
 90
     4095
280
     0
281
     0
  0
CLASS
  1
MLEADERSTYLE
  2
AcDbMLeaderStyle
  3
ACDB_MLEADERSTYLE_CLASS
 90
     4095
280
     0
281
     0
  0
CLASS
  1
SUN
  2
AcDbSun
  3
SCENEOE
 90
     1153
280
     0
281
     0
  0
CLASS
  1
ACDBPLACEHOLDER
  2
AcDbPlaceHolder
  3
ObjectDBX Classes
 90
        0
280
     0
281
     0
  0
CLASS
  1
LAYOUT
  2
AcDbLayout
  3
ObjectDBX Classes
 90
        0
280
     0
281
     0
  0
ENDSEC
  0
SECTION
  2
TABLES
  0
TABLE
  2
VPORT
  5
8
330
0
100
AcDbSymbolTable
 70
     1
  0
VPORT
  5
29
330
8
100
AcDbSymbolTableRecord
100
AcDbViewportTableRecord
  2
*Active
 70
     0
 10
0.0
 20
0.0
 11
1.0
 21
1.0
 12
0.0
 22
0.0
 13
0.0
 23
0.0
 14
10.0
 24
10.0
 15
10.0
 25
10.0
 16
0.0
 26
0.0
 36
1.0
 17
0.0
 27
0.0
 37
0.0
 40
25.4673687852
 41
2.0012812951
 42
50.0
 43
0.0
 44
0.0
 50
0.0
 51
0.0
 71
     0
 72
   100
 73
     1
 74
     3
 75
     0
 76
     0
 77
     0
 78
     0
281
     0
 65
     1
110
0.0
120
0.0
130
0.0
111
1.0
121
0.0
131
0.0
112
0.0
122
1.0
132
0.0
 79
     0
146
0.0
  0
ENDTAB
  0
TABLE
  2
LTYPE
  5
5
330
0
100
AcDbSymbolTable
 70
     6
  0
LTYPE
  5
14
330
5
100
AcDbSymbolTableRecord
100
AcDbLinetypeTableRecord
  2
ByBlock
 70
     0
  3

 72
    65
 73
     0
 40
0.0
  0
LTYPE
  5
15
330
5
100
AcDbSymbolTableRecord
100
AcDbLinetypeTableRecord
  2
ByLayer
 70
     0
  3

 72
    65
 73
     0
 40
0.0
  0
LTYPE
  5
16
330
5
100
AcDbSymbolTableRecord
100
AcDbLinetypeTableRecord
  2
Continuous
 70
     0
  3
Solid line
 72
    65
 73
     0
 40
0.0
  0
LTYPE
  5
6E
330
5
100
AcDbSymbolTableRecord
100
AcDbLinetypeTableRecord
  2
HIDDEN
 70
     0
  3
Hidden __ __ __ __ __ __ __ __ __ __ __ __ __ __
 72
    65
 73
     2
 40
0.1905
 49
0.127
 74
     0
 49
-0.0635
 74
     0
  0
LTYPE
  5
6F
330
5
100
AcDbSymbolTableRecord
100
AcDbLinetypeTableRecord
  2
PHANTOM
 70
     0
  3
Phantom ______  __  __  ______  __  __  ______
 72
    65
 73
     6
 40
1.27
 49
0.635
 74
     0
 49
-0.127
 74
     0
 49
0.127
 74
     0
 49
-0.127
 74
     0
 49
0.127
 74
     0
 49
-0.127
 74
     0
  0
LTYPE
  5
70
330
5
100
AcDbSymbolTableRecord
100
AcDbLinetypeTableRecord
  2
CENTER
 70
     0
  3
Center ____ _ ____ _ ____ _ ____ _ ____ _ ____
 72
    65
 73
     4
 40
1.016
 49
0.635
 74
     0
 49
-0.127
 74
     0
 49
0.127
 74
     0
 49
-0.127
 74
     0
  0
LTYPE
  5
71
330
5
100
AcDbSymbolTableRecord
100
AcDbLinetypeTableRecord
  2
CENTERX2
 70
     0
  3
Center (2x) ________  __  ________  __  _____
 72
    65
 73
     4
 40
2.032
 49
1.27
 74
     0
 49
-0.254
 74
     0
 49
0.254
 74
     0
 49
-0.254
 74
     0
  0
LTYPE
  5
72
330
5
100
AcDbSymbolTableRecord
100
AcDbLinetypeTableRecord
  2
DOT2
 70
     0
  3
Dot (.5x) ........................................
 72
    65
 73
     2
 40
0.0635
 49
0.0
 74
     0
 49
-0.0635
 74
     0
  0
ENDTAB
  0
TABLE
  2
LAYER
  5
2
330
0
100
AcDbSymbolTable
 70
     1
  0
LAYER
  5
10
330
2
100
AcDbSymbolTableRecord
100
AcDbLayerTableRecord
  2
0
 70
     0
 62
     7
  6
Continuous
370
    -3
390
F
  0
ENDTAB
  0
TABLE
  2
STYLE
  5
3
330
0
100
AcDbSymbolTable
 70
     1
  0
STYLE
  5
11
330
3
100
AcDbSymbolTableRecord
100
AcDbTextStyleTableRecord
  2
Standard
 70
     0
 40
0.0
 41
1.0
 50
0.0
 71
     0
 42
0.3175
  3
txt
  4

  0
ENDTAB
  0
TABLE
  2
VIEW
  5
6
330
0
100
AcDbSymbolTable
 70
     0
  0
ENDTAB
  0
TABLE
  2
UCS
  5
7
330
0
100
AcDbSymbolTable
 70
     0
  0
ENDTAB
  0
TABLE
  2
APPID
  5
9
330
0
100
AcDbSymbolTable
 70
     1
  0
APPID
  5
12
330
9
100
AcDbSymbolTableRecord
100
AcDbRegAppTableRecord
  2
ACAD
 70
     0
  0
ENDTAB
  0
TABLE
  2
DIMSTYLE
  5
A
330
0
100
AcDbSymbolTable
 70
     1
100
AcDbDimStyleTable
  0
DIMSTYLE
105
27
330
A
100
AcDbSymbolTableRecord
100
AcDbDimStyleTableRecord
  2
ISO-25
 70
     0
 41
2.5
 42
0.625
 43
3.75
 44
1.25
 73
     0
 74
     0
 77
     1
 78
     8
140
2.5
141
2.5
143
0.0393700787
147
0.625
171
     3
172
     1
178
     0
271
     2
272
     2
274
     3
278
    44
283
     0
284
     8
340
11
  0
ENDTAB
  0
TABLE
  2
BLOCK_RECORD
  5
1
330
0
100
AcDbSymbolTable
 70
     1
  0
BLOCK_RECORD
  5
1F
330
1
100
AcDbSymbolTableRecord
100
AcDbBlockTableRecord
  2
*Model_Space
340
22
  0
BLOCK_RECORD
  5
1B
330
1
100
AcDbSymbolTableRecord
100
AcDbBlockTableRecord
  2
*Paper_Space
340
1E
  0
BLOCK_RECORD
  5
23
330
1
100
AcDbSymbolTableRecord
100
AcDbBlockTableRecord
  2
*Paper_Space0
340
26
  0
ENDTAB
  0
ENDSEC
  0
SECTION
  2
BLOCKS
  0
BLOCK
  5
20
330
1F
100
AcDbEntity
  8
0
100
AcDbBlockBegin
  2
*Model_Space
 70
     0
 10
0.0
 20
0.0
 30
0.0
  3
*Model_Space
  1

  0
ENDBLK
  5
21
330
1F
100
AcDbEntity
  8
0
100
AcDbBlockEnd
  0
BLOCK
  5
1C
330
1B
100
AcDbEntity
 67
     1
  8
0
100
AcDbBlockBegin
  2
*Paper_Space
 70
     0
 10
0.0
 20
0.0
 30
0.0
  3
*Paper_Space
  1

  0
ENDBLK
  5
1D
330
1B
100
AcDbEntity
 67
     1
  8
0
100
AcDbBlockEnd
  0
BLOCK
  5
24
330
23
100
AcDbEntity
  8
0
100
AcDbBlockBegin
  2
*Paper_Space0
 70
     0
 10
0.0
 20
0.0
 30
0.0
  3
*Paper_Space0
  1

  0
ENDBLK
  5
25
330
23
100
AcDbEntity
  8
0
100
AcDbBlockEnd
  0
ENDSEC
  0
SECTION
  2
ENTITIES
  0
LINE
  5
73
330
1F
100
AcDbEntity
  8
0
  6
CENTERX2
 62
     7
100
AcDbLine
 10
-20.0
 20
-7.3020021532
 30
0.0
 11
20.0
 21
-7.3020021532
 31
0.0
  0
LINE
  5
74
330
1F
100
AcDbEntity
  8
0
  6
CENTERX2
 62
     7
100
AcDbLine
 10
20.0
 20
7.3020021532
 30
0.0
 11
-20.0
 21
7.3020021532
 31
0.0
  0
LINE
  5
75
330
1F
100
AcDbEntity
  8
0
  6
CENTERX2
 62
     7
100
AcDbLine
 10
-19.8020021532
 20
7.12634
 30
0.0
 11
-19.8020021532
 21
-7.12634
 31
0.0
  0
LINE
  5
76
330
1F
100
AcDbEntity
  8
0
  6
CENTERX2
 62
     7
100
AcDbLine
 10
19.8020021532
 20
-7.12634
 30
0.0
 11
19.8020021532
 21
7.12634
 31
0.0
  0
CIRCLE
  5
77
330
1F
100
AcDbEntity
  8
0
  6
Continuous
 62
     7
370
    25
100
AcDbCircle
 10
14.2727922061
 20
-11.2567965126
 30
0.0
 40
0.1999999999999975
  0
CIRCLE
  5
78
330
1F
100
AcDbEntity
  8
0
  6
Continuous
 62
     7
370
    25
100
AcDbCircle
 10
18.02634
 20
-9.3173376398
 30
0.0
 40
0.1999999999999993
  0
CIRCLE
  5
79
330
1F
100
AcDbEntity
  8
0
  6
Continuous
 62
     7
370
    25
100
AcDbCircle
 10
13.0
 20
-9.9840043065
 30
0.0
 40
0.8000000000000043
  0
CIRCLE
  5
7A
330
1F
100
AcDbEntity
  8
0
  6
Continuous
 62
     7
370
    25
100
AcDbCircle
 10
7.97366
 20
-10.6506709731
 30
0.0
 40
0.1999999999999993
  0
CIRCLE
  5
7B
330
1F
100
AcDbEntity
  8
0
  6
Continuous
 62
     7
370
    25
100
AcDbCircle
 10
11.7272077939
 20
-8.7112121003
 30
0.0
 40
0.1999999999999975
  0
CIRCLE
  5
7C
330
1F
100
AcDbEntity
  8
0
  6
Continuous
 62
     7
370
    25
100
AcDbCircle
 10
-14.2727922061
 20
-11.2567965126
 30
0.0
 40
0.2000000000000046
  0
CIRCLE
  5
7D
330
1F
100
AcDbEntity
  8
0
  6
Continuous
 62
     7
370
    25
100
AcDbCircle
 10
-14.2727922061
 20
-8.7112121003
 30
0.0
 40
0.2000000000000011
  0
CIRCLE
  5
7E
330
1F
100
AcDbEntity
  8
0
  6
Continuous
 62
     7
370
    25
100
AcDbCircle
 10
-11.7272077939
 20
-11.2567965126
 30
0.0
 40
0.1999999999999957
  0
CIRCLE
  5
7F
330
1F
100
AcDbEntity
  8
0
  6
Continuous
 62
     7
370
    25
100
AcDbCircle
 10
-7.97366
 20
-10.6506709731
 30
0.0
 40
0.2000000000000011
  0
CIRCLE
  5
80
330
1F
100
AcDbEntity
  8
0
  6
Continuous
 62
     7
370
    25
100
AcDbCircle
 10
-11.7272077939
 20
-8.7112121003
 30
0.0
 40
0.1999999999999993
  0
CIRCLE
  5
81
330
1F
100
AcDbEntity
  8
0
  6
Continuous
 62
     7
370
    25
100
AcDbCircle
 10
-13.0
 20
-9.9840043065
 30
0.0
 40
0.7999999999999972
  0
CIRCLE
  5
82
330
1F
100
AcDbEntity
  8
0
  6
Continuous
 62
     7
370
    25
100
AcDbCircle
 10
-7.97366
 20
-9.3173376398
 30
0.0
 40
0.2000000000000011
  0
CIRCLE
  5
83
330
1F
100
AcDbEntity
  8
0
  6
Continuous
 62
     7
370
    25
100
AcDbCircle
 10
-18.02634
 20
-10.6506709731
 30
0.0
 40
0.1999999999999993
  0
CIRCLE
  5
84
330
1F
100
AcDbEntity
  8
0
  6
Continuous
 62
     7
370
    25
100
AcDbCircle
 10
-18.02634
 20
-9.3173376398
 30
0.0
 40
0.1999999999999993
  0
CIRCLE
  5
85
330
1F
100
AcDbEntity
  8
0
  6
Continuous
 62
     7
370
    25
100
AcDbCircle
 10
14.2727922061
 20
-8.7112121003
 30
0.0
 40
0.2000000000000064
  0
CIRCLE
  5
86
330
1F
100
AcDbEntity
  8
0
  6
Continuous
 62
     7
370
    25
100
AcDbCircle
 10
7.97366
 20
-9.3173376398
 30
0.0
 40
0.1999999999999993
  0
CIRCLE
  5
87
330
1F
100
AcDbEntity
  8
0
  6
Continuous
 62
     7
370
    25
100
AcDbCircle
 10
11.7272077939
 20
-11.2567965126
 30
0.0
 40
0.2000000000000011
  0
CIRCLE
  5
88
330
1F
100
AcDbEntity
  8
0
  6
Continuous
 62
     7
370
    25
100
AcDbCircle
 10
18.02634
 20
-10.6506709731
 30
0.0
 40
0.1999999999999993
  0
CIRCLE
  5
101
330
1F
100
AcDbEntity
  8
0
  6
Continuous
 62
     7
370
    25
100
AcDbCircle
 10
14.2727922061
 20
11.2567965126
 30
0.0
 40
0.1999999999999993
  0
CIRCLE
  5
102
330
1F
100
AcDbEntity
  8
0
  6
Continuous
 62
     7
370
    25
100
AcDbCircle
 10
18.02634
 20
9.3173376398
 30
0.0
 40
0.1999999999999993
  0
CIRCLE
  5
103
330
1F
100
AcDbEntity
  8
0
  6
Continuous
 62
     7
370
    25
100
AcDbCircle
 10
13.0
 20
9.9840043065
 30
0.0
 40
0.8000000000000007
  0
CIRCLE
  5
104
330
1F
100
AcDbEntity
  8
0
  6
Continuous
 62
     7
370
    25
100
AcDbCircle
 10
7.97366
 20
10.6506709731
 30
0.0
 40
0.1999999999999993
  0
CIRCLE
  5
105
330
1F
100
AcDbEntity
  8
0
  6
Continuous
 62
     7
370
    25
100
AcDbCircle
 10
11.7272077939
 20
8.7112121003
 30
0.0
 40
0.1999999999999975
  0
CIRCLE
  5
106
330
1F
100
AcDbEntity
  8
0
  6
Continuous
 62
     7
370
    25
100
AcDbCircle
 10
-14.2727922061
 20
11.2567965126
 30
0.0
 40
0.2000000000000011
  0
CIRCLE
  5
107
330
1F
100
AcDbEntity
  8
0
  6
Continuous
 62
     7
370
    25
100
AcDbCircle
 10
-14.2727922061
 20
8.7112121003
 30
0.0
 40
0.2000000000000028
  0
CIRCLE
  5
108
330
1F
100
AcDbEntity
  8
0
  6
Continuous
 62
     7
370
    25
100
AcDbCircle
 10
-11.7272077939
 20
11.2567965126
 30
0.0
 40
0.2000000000000011
  0
CIRCLE
  5
109
330
1F
100
AcDbEntity
  8
0
  6
Continuous
 62
     7
370
    25
100
AcDbCircle
 10
-7.97366
 20
10.6506709731
 30
0.0
 40
0.2000000000000011
  0
CIRCLE
  5
10A
330
1F
100
AcDbEntity
  8
0
  6
Continuous
 62
     7
370
    25
100
AcDbCircle
 10
-11.7272077939
 20
8.7112121003
 30
0.0
 40
0.1999999999999993
  0
CIRCLE
  5
10B
330
1F
100
AcDbEntity
  8
0
  6
Continuous
 62
     7
370
    25
100
AcDbCircle
 10
-13.0
 20
9.9840043065
 30
0.0
 40
0.8000000000000025
  0
CIRCLE
  5
10C
330
1F
100
AcDbEntity
  8
0
  6
Continuous
 62
     7
370
    25
100
AcDbCircle
 10
-7.97366
 20
9.3173376398
 30
0.0
 40
0.2000000000000011
  0
CIRCLE
  5
10D
330
1F
100
AcDbEntity
  8
0
  6
Continuous
 62
     7
370
    25
100
AcDbCircle
 10
-18.02634
 20
10.6506709731
 30
0.0
 40
0.1999999999999993
  0
CIRCLE
  5
10E
330
1F
100
AcDbEntity
  8
0
  6
Continuous
 62
     7
370
    25
100
AcDbCircle
 10
-18.02634
 20
9.3173376398
 30
0.0
 40
0.1999999999999993
  0
CIRCLE
  5
10F
330
1F
100
AcDbEntity
  8
0
  6
Continuous
 62
     7
370
    25
100
AcDbCircle
 10
14.2727922061
 20
8.7112121003
 30
0.0
 40
0.2000000000000046
  0
CIRCLE
  5
110
330
1F
100
AcDbEntity
  8
0
  6
Continuous
 62
     7
370
    25
100
AcDbCircle
 10
7.97366
 20
9.3173376398
 30
0.0
 40
0.2000000000000011
  0
CIRCLE
  5
111
330
1F
100
AcDbEntity
  8
0
  6
Continuous
 62
     7
370
    25
100
AcDbCircle
 10
11.7272077939
 20
11.2567965126
 30
0.0
 40
0.2000000000000028
  0
CIRCLE
  5
112
330
1F
100
AcDbEntity
  8
0
  6
Continuous
 62
     7
370
    25
100
AcDbCircle
 10
18.02634
 20
10.6506709731
 30
0.0
 40
0.1999999999999975
  0
LINE
  5
20F
330
1F
100
AcDbEntity
  8
0
  6
Continuous
 62
     7
370
    25
100
AcDbLine
 10
5.9378491028
 20
-8.8025062692
 30
0.0
 11
1.4280719747
 21
-9.9323332168
 31
0.0
  0
LINE
  5
210
330
1F
100
AcDbEntity
  8
0
  6
Continuous
 62
     7
370
    25
100
AcDbLine
 10
1.4280719747
 20
-10.0293353961
 30
0.0
 11
5.9378491028
 21
-11.1591623437
 31
0.0
  0
LINE
  5
211
330
1F
100
AcDbEntity
  8
0
  6
Continuous
 62
     7
370
    25
100
AcDbLine
 10
6.0
 20
-11.1106612541
 30
0.0
 11
6.0
 21
-8.8510073588
 31
0.0
  0
LINE
  5
212
330
1F
100
AcDbEntity
  8
0
  6
Continuous
 62
     7
370
    25
100
AcDbLine
 10
10.7297204204
 20
-11.3986489674
 30
0.0
 11
9.5625631329
 21
-10.2314916799
 31
0.0
  0
LINE
  5
213
330
1F
100
AcDbEntity
  8
0
  6
Continuous
 62
     7
370
    25
100
AcDbLine
 10
9.4918524548
 20
-10.2314916799
 30
0.0
 11
8.3246951673
 21
-11.3986489674
 31
0.0
  0
LINE
  5
214
330
1F
100
AcDbEntity
  8
0
  6
Continuous
 62
     7
370
    25
100
AcDbLine
 10
8.3600505063
 20
-11.4840043065
 30
0.0
 11
10.6943650814
 21
-11.4840043065
 31
0.0
  0
LINE
  5
215
330
1F
100
AcDbEntity
  8
0
  6
Continuous
 62
     7
370
    25
100
AcDbLine
 10
15.0581475452
 20
-11.186516933
 30
0.0
 11
16.2253048327
 21
-10.0193596455
 31
0.0
  0
LINE
  5
216
330
1F
100
AcDbEntity
  8
0
  6
Continuous
 62
     7
370
    25
100
AcDbLine
 10
16.2253048327
 20
-9.9486489674
 30
0.0
 11
15.0581475452
 21
-8.7814916799
 31
0.0
  0
LINE
  5
217
330
1F
100
AcDbEntity
  8
0
  6
Continuous
 62
     7
370
    25
100
AcDbLine
 10
14.9727922061
 20
-8.8168470189
 30
0.0
 11
14.9727922061
 21
-11.151161594
 31
0.0
  0
LINE
  5
218
330
1F
100
AcDbEntity
  8
0
  6
Continuous
 62
     7
370
    25
100
AcDbLine
 10
15.2702795796
 20
-8.5693596455
 30
0.0
 11
16.4374368671
 21
-9.736516933
 31
0.0
  0
LINE
  5
219
330
1F
100
AcDbEntity
  8
0
  6
Continuous
 62
     7
370
    25
100
AcDbLine
 10
16.5081475452
 20
-9.736516933
 30
0.0
 11
17.6753048327
 21
-8.5693596455
 31
0.0
  0
LINE
  5
21A
330
1F
100
AcDbEntity
  8
0
  6
Continuous
 62
     7
370
    25
100
AcDbLine
 10
17.6399494937
 20
-8.4840043065
 30
0.0
 11
15.3056349186
 21
-8.4840043065
 31
0.0
  0
LINE
  5
21B
330
1F
100
AcDbEntity
  8
0
  6
Continuous
 62
     7
370
    25
100
AcDbLine
 10
17.6753048327
 20
-11.3986489674
 30
0.0
 11
16.5081475452
 21
-10.2314916799
 31
0.0
  0
LINE
  5
21C
330
1F
100
AcDbEntity
  8
0
  6
Continuous
 62
     7
370
    25
100
AcDbLine
 10
16.4374368671
 20
-10.2314916799
 30
0.0
 11
15.2702795796
 21
-11.3986489674
 31
0.0
  0
LINE
  5
21D
330
1F
100
AcDbEntity
  8
0
  6
Continuous
 62
     7
370
    25
100
AcDbLine
 10
15.3056349186
 20
-11.4840043065
 30
0.0
 11
17.6399494937
 21
-11.4840043065
 31
0.0
  0
LINE
  5
21E
330
1F
100
AcDbEntity
  8
0
  6
Continuous
 62
     7
370
    25
100
AcDbLine
 10
4.3723498006
 20
-11.3855032168
 30
0.0
 11
0.1215089716
 21
-10.3205471486
 31
0.0
  0
LINE
  5
21F
330
1F
100
AcDbEntity
  8
0
  6
Continuous
 62
     7
370
    25
100
AcDbLine
 10
-0.1215089716
 20
-10.3205471486
 30
0.0
 11
-4.3723498006
 21
-11.3855032168
 31
0.0
  0
LINE
  5
220
330
1F
100
AcDbEntity
  8
0
  6
Continuous
 62
     7
370
    25
100
AcDbLine
 10
-4.3601989034
 20
-11.4840043065
 30
0.0
 11
4.3601989034
 21
-11.4840043065
 31
0.0
  0
LINE
  5
221
330
1F
100
AcDbEntity
  8
0
  6
Continuous
 62
     7
370
    25
100
AcDbLine
 10
-4.3723498006
 20
-8.5761653961
 30
0.0
 11
-0.1215089716
 21
-9.6411214643
 31
0.0
  0
LINE
  5
222
330
1F
100
AcDbEntity
  8
0
  6
Continuous
 62
     7
370
    25
100
AcDbLine
 10
0.1215089716
 20
-9.6411214643
 30
0.0
 11
4.3723498006
 21
-8.5761653961
 31
0.0
  0
LINE
  5
223
330
1F
100
AcDbEntity
  8
0
  6
Continuous
 62
     7
370
    25
100
AcDbLine
 10
4.3601989034
 20
-8.4776643065
 30
0.0
 11
-4.3601989034
 21
-8.4776643065
 31
0.0
  0
LINE
  5
224
330
1F
100
AcDbEntity
  8
0
  6
Continuous
 62
     7
370
    25
100
AcDbLine
 10
-5.9378491028
 20
-11.1591623437
 30
0.0
 11
-1.4280719747
 21
-10.0293353961
 31
0.0
  0
LINE
  5
225
330
1F
100
AcDbEntity
  8
0
  6
Continuous
 62
     7
370
    25
100
AcDbLine
 10
-1.4280719747
 20
-9.9323332168
 30
0.0
 11
-5.9378491028
 21
-8.8025062692
 31
0.0
  0
LINE
  5
226
330
1F
100
AcDbEntity
  8
0
  6
Continuous
 62
     7
370
    25
100
AcDbLine
 10
-6.0
 20
-8.8510073588
 30
0.0
 11
-6.0
 21
-11.1106612541
 31
0.0
  0
LINE
  5
227
330
1F
100
AcDbEntity
  8
0
  6
Continuous
 62
     7
370
    25
100
AcDbLine
 10
-15.3056349186
 20
-8.4840043065
 30
0.0
 11
-17.6399494937
 21
-8.4840043065
 31
0.0
  0
LINE
  5
228
330
1F
100
AcDbEntity
  8
0
  6
Continuous
 62
     7
370
    25
100
AcDbLine
 10
-17.6753048327
 20
-8.5693596455
 30
0.0
 11
-16.5081475452
 21
-9.736516933
 31
0.0
  0
LINE
  5
229
330
1F
100
AcDbEntity
  8
0
  6
Continuous
 62
     7
370
    25
100
AcDbLine
 10
-16.4374368671
 20
-9.736516933
 30
0.0
 11
-15.2702795796
 21
-8.5693596455
 31
0.0
  0
LINE
  5
22A
330
1F
100
AcDbEntity
  8
0
  6
Continuous
 62
     7
370
    25
100
AcDbLine
 10
-11.0272077939
 20
-8.8168470189
 30
0.0
 11
-11.0272077939
 21
-11.151161594
 31
0.0
  0
LINE
  5
22B
330
1F
100
AcDbEntity
  8
0
  6
Continuous
 62
     7
370
    25
100
AcDbLine
 10
-10.9418524548
 20
-11.186516933
 30
0.0
 11
-9.7746951673
 21
-10.0193596455
 31
0.0
  0
LINE
  5
22C
330
1F
100
AcDbEntity
  8
0
  6
Continuous
 62
     7
370
    25
100
AcDbLine
 10
-9.7746951673
 20
-9.9486489674
 30
0.0
 11
-10.9418524548
 21
-8.7814916799
 31
0.0
  0
LINE
  5
22D
330
1F
100
AcDbEntity
  8
0
  6
Continuous
 62
     7
370
    25
100
AcDbLine
 10
-8.3246951673
 20
-11.3986489674
 30
0.0
 11
-9.4918524548
 21
-10.2314916799
 31
0.0
  0
LINE
  5
22E
330
1F
100
AcDbEntity
  8
0
  6
Continuous
 62
     7
370
    25
100
AcDbLine
 10
-9.5625631329
 20
-10.2314916799
 30
0.0
 11
-10.7297204204
 21
-11.3986489674
 31
0.0
  0
LINE
  5
22F
330
1F
100
AcDbEntity
  8
0
  6
Continuous
 62
     7
370
    25
100
AcDbLine
 10
-10.6943650814
 20
-11.4840043065
 30
0.0
 11
-8.3600505063
 21
-11.4840043065
 31
0.0
  0
LINE
  5
230
330
1F
100
AcDbEntity
  8
0
  6
Continuous
 62
     7
370
    25
100
AcDbLine
 10
-8.6590153391
 20
-9.327943886
 30
0.0
 11
-9.2797204204
 21
-9.9486489674
 31
0.0
  0
LINE
  5
231
330
1F
100
AcDbEntity
  8
0
  6
Continuous
 62
     7
370
    25
100
AcDbLine
 10
-9.2797204204
 20
-10.0193596455
 30
0.0
 11
-8.6590153391
 21
-10.6400647269
 31
0.0
  0
LINE
  5
232
330
1F
100
AcDbEntity
  8
0
  6
Continuous
 62
     7
370
    25
100
AcDbLine
 10
-8.57366
 20
-10.6047093878
 30
0.0
 11
-8.57366
 21
-9.3632992251
 31
0.0
  0
LINE
  5
233
330
1F
100
AcDbEntity
  8
0
  6
Continuous
 62
     7
370
    25
100
AcDbLine
 10
-15.2702795796
 20
-11.3986489674
 30
0.0
 11
-16.4374368671
 21
-10.2314916799
 31
0.0
  0
LINE
  5
234
330
1F
100
AcDbEntity
  8
0
  6
Continuous
 62
     7
370
    25
100
AcDbLine
 10
-16.5081475452
 20
-10.2314916799
 30
0.0
 11
-17.6753048327
 21
-11.3986489674
 31
0.0
  0
LINE
  5
235
330
1F
100
AcDbEntity
  8
0
  6
Continuous
 62
     7
370
    25
100
AcDbLine
 10
-17.6399494937
 20
-11.4840043065
 30
0.0
 11
-15.3056349186
 21
-11.4840043065
 31
0.0
  0
LINE
  5
236
330
1F
100
AcDbEntity
  8
0
  6
Continuous
 62
     7
370
    25
100
AcDbLine
 10
-8.3600505063
 20
-8.4840043065
 30
0.0
 11
-10.6943650814
 21
-8.4840043065
 31
0.0
  0
LINE
  5
237
330
1F
100
AcDbEntity
  8
0
  6
Continuous
 62
     7
370
    25
100
AcDbLine
 10
-10.7297204204
 20
-8.5693596455
 30
0.0
 11
-9.5625631329
 21
-9.736516933
 31
0.0
  0
LINE
  5
238
330
1F
100
AcDbEntity
  8
0
  6
Continuous
 62
     7
370
    25
100
AcDbLine
 10
-9.4918524548
 20
-9.736516933
 30
0.0
 11
-8.3246951673
 21
-8.5693596455
 31
0.0
  0
LINE
  5
239
330
1F
100
AcDbEntity
  8
0
  6
Continuous
 62
     7
370
    25
100
AcDbLine
 10
-17.42634
 20
-9.3632992251
 30
0.0
 11
-17.42634
 21
-10.6047093878
 31
0.0
  0
LINE
  5
23A
330
1F
100
AcDbEntity
  8
0
  6
Continuous
 62
     7
370
    25
100
AcDbLine
 10
-17.3409846609
 20
-10.6400647269
 30
0.0
 11
-16.7202795796
 21
-10.0193596455
 31
0.0
  0
LINE
  5
23B
330
1F
100
AcDbEntity
  8
0
  6
Continuous
 62
     7
370
    25
100
AcDbLine
 10
-16.7202795796
 20
-9.9486489674
 30
0.0
 11
-17.3409846609
 21
-9.327943886
 31
0.0
  0
LINE
  5
23C
330
1F
100
AcDbEntity
  8
0
  6
Continuous
 62
     7
370
    25
100
AcDbLine
 10
-15.0581475452
 20
-8.7814916799
 30
0.0
 11
-16.2253048327
 21
-9.9486489674
 31
0.0
  0
LINE
  5
23D
330
1F
100
AcDbEntity
  8
0
  6
Continuous
 62
     7
370
    25
100
AcDbLine
 10
-16.2253048327
 20
-10.0193596455
 30
0.0
 11
-15.0581475452
 21
-11.186516933
 31
0.0
  0
LINE
  5
23E
330
1F
100
AcDbEntity
  8
0
  6
Continuous
 62
     7
370
    25
100
AcDbLine
 10
-14.9727922061
 20
-11.151161594
 30
0.0
 11
-14.9727922061
 21
-8.8168470189
 31
0.0
  0
LINE
  5
23F
330
1F
100
AcDbEntity
  8
0
  6
Continuous
 62
     7
370
    25
100
AcDbLine
 10
8.57366
 20
-9.3632992251
 30
0.0
 11
8.57366
 21
-10.6047093878
 31
0.0
  0
LINE
  5
240
330
1F
100
AcDbEntity
  8
0
  6
Continuous
 62
     7
370
    25
100
AcDbLine
 10
8.6590153391
 20
-10.6400647269
 30
0.0
 11
9.2797204204
 21
-10.0193596455
 31
0.0
  0
LINE
  5
241
330
1F
100
AcDbEntity
  8
0
  6
Continuous
 62
     7
370
    25
100
AcDbLine
 10
9.2797204204
 20
-9.9486489674
 30
0.0
 11
8.6590153391
 21
-9.327943886
 31
0.0
  0
LINE
  5
242
330
1F
100
AcDbEntity
  8
0
  6
Continuous
 62
     7
370
    25
100
AcDbLine
 10
17.3409846609
 20
-9.327943886
 30
0.0
 11
16.7202795796
 21
-9.9486489674
 31
0.0
  0
LINE
  5
243
330
1F
100
AcDbEntity
  8
0
  6
Continuous
 62
     7
370
    25
100
AcDbLine
 10
16.7202795796
 20
-10.0193596455
 30
0.0
 11
17.3409846609
 21
-10.6400647269
 31
0.0
  0
LINE
  5
244
330
1F
100
AcDbEntity
  8
0
  6
Continuous
 62
     7
370
    25
100
AcDbLine
 10
17.42634
 20
-10.6047093878
 30
0.0
 11
17.42634
 21
-9.3632992251
 31
0.0
  0
LINE
  5
245
330
1F
100
AcDbEntity
  8
0
  6
Continuous
 62
     7
370
    25
100
AcDbLine
 10
10.6943650814
 20
-8.4840043065
 30
0.0
 11
8.3600505063
 21
-8.4840043065
 31
0.0
  0
LINE
  5
246
330
1F
100
AcDbEntity
  8
0
  6
Continuous
 62
     7
370
    25
100
AcDbLine
 10
8.3246951673
 20
-8.5693596455
 30
0.0
 11
9.4918524548
 21
-9.736516933
 31
0.0
  0
LINE
  5
247
330
1F
100
AcDbEntity
  8
0
  6
Continuous
 62
     7
370
    25
100
AcDbLine
 10
9.5625631329
 20
-9.736516933
 30
0.0
 11
10.7297204204
 21
-8.5693596455
 31
0.0
  0
LINE
  5
248
330
1F
100
AcDbEntity
  8
0
  6
Continuous
 62
     7
370
    25
100
AcDbLine
 10
10.9418524548
 20
-8.7814916799
 30
0.0
 11
9.7746951673
 21
-9.9486489674
 31
0.0
  0
LINE
  5
249
330
1F
100
AcDbEntity
  8
0
  6
Continuous
 62
     7
370
    25
100
AcDbLine
 10
9.7746951673
 20
-10.0193596455
 30
0.0
 11
10.9418524548
 21
-11.186516933
 31
0.0
  0
LINE
  5
24A
330
1F
100
AcDbEntity
  8
0
  6
Continuous
 62
     7
370
    25
100
AcDbLine
 10
11.0272077939
 20
-11.151161594
 30
0.0
 11
11.0272077939
 21
-8.8168470189
 31
0.0
  0
LINE
  5
24B
330
1F
100
AcDbEntity
  8
0
  6
Continuous
 62
     7
370
    25
100
AcDbLine
 10
5.9378491028
 20
11.1591623437
 30
0.0
 11
1.4280719747
 21
10.0293353961
 31
0.0
  0
LINE
  5
24C
330
1F
100
AcDbEntity
  8
0
  6
Continuous
 62
     7
370
    25
100
AcDbLine
 10
1.4280719747
 20
9.9323332168
 30
0.0
 11
5.9378491028
 21
8.8025062692
 31
0.0
  0
LINE
  5
24D
330
1F
100
AcDbEntity
  8
0
  6
Continuous
 62
     7
370
    25
100
AcDbLine
 10
6.0
 20
8.8510073588
 30
0.0
 11
6.0
 21
11.1106612541
 31
0.0
  0
LINE
  5
24E
330
1F
100
AcDbEntity
  8
0
  6
Continuous
 62
     7
370
    25
100
AcDbLine
 10
8.3246951673
 20
11.3986489674
 30
0.0
 11
9.4918524548
 21
10.2314916799
 31
0.0
  0
LINE
  5
24F
330
1F
100
AcDbEntity
  8
0
  6
Continuous
 62
     7
370
    25
100
AcDbLine
 10
9.5625631329
 20
10.2314916799
 30
0.0
 11
10.7297204204
 21
11.3986489674
 31
0.0
  0
LINE
  5
250
330
1F
100
AcDbEntity
  8
0
  6
Continuous
 62
     7
370
    25
100
AcDbLine
 10
10.6943650814
 20
11.4840043065
 30
0.0
 11
8.3600505063
 21
11.4840043065
 31
0.0
  0
LINE
  5
251
330
1F
100
AcDbEntity
  8
0
  6
Continuous
 62
     7
370
    25
100
AcDbLine
 10
15.0581475452
 20
8.7814916799
 30
0.0
 11
16.2253048327
 21
9.9486489674
 31
0.0
  0
LINE
  5
252
330
1F
100
AcDbEntity
  8
0
  6
Continuous
 62
     7
370
    25
100
AcDbLine
 10
16.2253048327
 20
10.0193596455
 30
0.0
 11
15.0581475452
 21
11.186516933
 31
0.0
  0
LINE
  5
253
330
1F
100
AcDbEntity
  8
0
  6
Continuous
 62
     7
370
    25
100
AcDbLine
 10
14.9727922061
 20
11.151161594
 30
0.0
 11
14.9727922061
 21
8.8168470189
 31
0.0
  0
LINE
  5
254
330
1F
100
AcDbEntity
  8
0
  6
Continuous
 62
     7
370
    25
100
AcDbLine
 10
17.6753048327
 20
8.5693596455
 30
0.0
 11
16.5081475452
 21
9.736516933
 31
0.0
  0
LINE
  5
255
330
1F
100
AcDbEntity
  8
0
  6
Continuous
 62
     7
370
    25
100
AcDbLine
 10
16.4374368671
 20
9.736516933
 30
0.0
 11
15.2702795796
 21
8.5693596455
 31
0.0
  0
LINE
  5
256
330
1F
100
AcDbEntity
  8
0
  6
Continuous
 62
     7
370
    25
100
AcDbLine
 10
15.3056349186
 20
8.4840043065
 30
0.0
 11
17.6399494937
 21
8.4840043065
 31
0.0
  0
LINE
  5
257
330
1F
100
AcDbEntity
  8
0
  6
Continuous
 62
     7
370
    25
100
AcDbLine
 10
15.2702795796
 20
11.3986489674
 30
0.0
 11
16.4374368671
 21
10.2314916799
 31
0.0
  0
LINE
  5
258
330
1F
100
AcDbEntity
  8
0
  6
Continuous
 62
     7
370
    25
100
AcDbLine
 10
16.5081475452
 20
10.2314916799
 30
0.0
 11
17.6753048327
 21
11.3986489674
 31
0.0
  0
LINE
  5
259
330
1F
100
AcDbEntity
  8
0
  6
Continuous
 62
     7
370
    25
100
AcDbLine
 10
17.6399494937
 20
11.4840043065
 30
0.0
 11
15.3056349186
 21
11.4840043065
 31
0.0
  0
LINE
  5
25A
330
1F
100
AcDbEntity
  8
0
  6
Continuous
 62
     7
370
    25
100
AcDbLine
 10
-4.3723498006
 20
11.3855032168
 30
0.0
 11
-0.1215089716
 21
10.3205471486
 31
0.0
  0
LINE
  5
25B
330
1F
100
AcDbEntity
  8
0
  6
Continuous
 62
     7
370
    25
100
AcDbLine
 10
0.1215089716
 20
10.3205471486
 30
0.0
 11
4.3723498006
 21
11.3855032168
 31
0.0
  0
LINE
  5
25C
330
1F
100
AcDbEntity
  8
0
  6
Continuous
 62
     7
370
    25
100
AcDbLine
 10
4.3601989034
 20
11.4840043065
 30
0.0
 11
-4.3601989034
 21
11.4840043065
 31
0.0
  0
LINE
  5
25D
330
1F
100
AcDbEntity
  8
0
  6
Continuous
 62
     7
370
    25
100
AcDbLine
 10
4.3723498006
 20
8.5761653961
 30
0.0
 11
0.1215089716
 21
9.6411214643
 31
0.0
  0
LINE
  5
25E
330
1F
100
AcDbEntity
  8
0
  6
Continuous
 62
     7
370
    25
100
AcDbLine
 10
-0.1215089716
 20
9.6411214643
 30
0.0
 11
-4.3723498006
 21
8.5761653961
 31
0.0
  0
LINE
  5
25F
330
1F
100
AcDbEntity
  8
0
  6
Continuous
 62
     7
370
    25
100
AcDbLine
 10
-4.3601989034
 20
8.4776643065
 30
0.0
 11
4.3601989034
 21
8.4776643065
 31
0.0
  0
LINE
  5
260
330
1F
100
AcDbEntity
  8
0
  6
Continuous
 62
     7
370
    25
100
AcDbLine
 10
-5.9378491028
 20
8.8025062692
 30
0.0
 11
-1.4280719747
 21
9.9323332168
 31
0.0
  0
LINE
  5
261
330
1F
100
AcDbEntity
  8
0
  6
Continuous
 62
     7
370
    25
100
AcDbLine
 10
-1.4280719747
 20
10.0293353961
 30
0.0
 11
-5.9378491028
 21
11.1591623437
 31
0.0
  0
LINE
  5
262
330
1F
100
AcDbEntity
  8
0
  6
Continuous
 62
     7
370
    25
100
AcDbLine
 10
-6.0
 20
11.1106612541
 30
0.0
 11
-6.0
 21
8.8510073588
 31
0.0
  0
LINE
  5
263
330
1F
100
AcDbEntity
  8
0
  6
Continuous
 62
     7
370
    25
100
AcDbLine
 10
-16.5081475452
 20
9.736516933
 30
0.0
 11
-17.6753048327
 21
8.5693596455
 31
0.0
  0
LINE
  5
264
330
1F
100
AcDbEntity
  8
0
  6
Continuous
 62
     7
370
    25
100
AcDbLine
 10
-17.6399494937
 20
8.4840043065
 30
0.0
 11
-15.3056349186
 21
8.4840043065
 31
0.0
  0
LINE
  5
265
330
1F
100
AcDbEntity
  8
0
  6
Continuous
 62
     7
370
    25
100
AcDbLine
 10
-15.2702795796
 20
8.5693596455
 30
0.0
 11
-16.4374368671
 21
9.736516933
 31
0.0
  0
LINE
  5
266
330
1F
100
AcDbEntity
  8
0
  6
Continuous
 62
     7
370
    25
100
AcDbLine
 10
-9.7746951673
 20
10.0193596455
 30
0.0
 11
-10.9418524548
 21
11.186516933
 31
0.0
  0
LINE
  5
267
330
1F
100
AcDbEntity
  8
0
  6
Continuous
 62
     7
370
    25
100
AcDbLine
 10
-11.0272077939
 20
11.151161594
 30
0.0
 11
-11.0272077939
 21
8.8168470189
 31
0.0
  0
LINE
  5
268
330
1F
100
AcDbEntity
  8
0
  6
Continuous
 62
     7
370
    25
100
AcDbLine
 10
-10.9418524548
 20
8.7814916799
 30
0.0
 11
-9.7746951673
 21
9.9486489674
 31
0.0
  0
LINE
  5
269
330
1F
100
AcDbEntity
  8
0
  6
Continuous
 62
     7
370
    25
100
AcDbLine
 10
-10.7297204204
 20
11.3986489674
 30
0.0
 11
-9.5625631329
 21
10.2314916799
 31
0.0
  0
LINE
  5
26A
330
1F
100
AcDbEntity
  8
0
  6
Continuous
 62
     7
370
    25
100
AcDbLine
 10
-9.4918524548
 20
10.2314916799
 30
0.0
 11
-8.3246951673
 21
11.3986489674
 31
0.0
  0
LINE
  5
26B
330
1F
100
AcDbEntity
  8
0
  6
Continuous
 62
     7
370
    25
100
AcDbLine
 10
-8.3600505063
 20
11.4840043065
 30
0.0
 11
-10.6943650814
 21
11.4840043065
 31
0.0
  0
LINE
  5
26C
330
1F
100
AcDbEntity
  8
0
  6
Continuous
 62
     7
370
    25
100
AcDbLine
 10
-8.6590153391
 20
10.6400647269
 30
0.0
 11
-9.2797204204
 21
10.0193596455
 31
0.0
  0
LINE
  5
26D
330
1F
100
AcDbEntity
  8
0
  6
Continuous
 62
     7
370
    25
100
AcDbLine
 10
-9.2797204204
 20
9.9486489674
 30
0.0
 11
-8.6590153391
 21
9.327943886
 31
0.0
  0
LINE
  5
26E
330
1F
100
AcDbEntity
  8
0
  6
Continuous
 62
     7
370
    25
100
AcDbLine
 10
-8.57366
 20
9.3632992251
 30
0.0
 11
-8.57366
 21
10.6047093878
 31
0.0
  0
LINE
  5
26F
330
1F
100
AcDbEntity
  8
0
  6
Continuous
 62
     7
370
    25
100
AcDbLine
 10
-17.6753048327
 20
11.3986489674
 30
0.0
 11
-16.5081475452
 21
10.2314916799
 31
0.0
  0
LINE
  5
270
330
1F
100
AcDbEntity
  8
0
  6
Continuous
 62
     7
370
    25
100
AcDbLine
 10
-16.4374368671
 20
10.2314916799
 30
0.0
 11
-15.2702795796
 21
11.3986489674
 31
0.0
  0
LINE
  5
271
330
1F
100
AcDbEntity
  8
0
  6
Continuous
 62
     7
370
    25
100
AcDbLine
 10
-15.3056349186
 20
11.4840043065
 30
0.0
 11
-17.6399494937
 21
11.4840043065
 31
0.0
  0
LINE
  5
272
330
1F
100
AcDbEntity
  8
0
  6
Continuous
 62
     7
370
    25
100
AcDbLine
 10
-9.5625631329
 20
9.736516933
 30
0.0
 11
-10.7297204204
 21
8.5693596455
 31
0.0
  0
LINE
  5
273
330
1F
100
AcDbEntity
  8
0
  6
Continuous
 62
     7
370
    25
100
AcDbLine
 10
-10.6943650814
 20
8.4840043065
 30
0.0
 11
-8.3600505063
 21
8.4840043065
 31
0.0
  0
LINE
  5
274
330
1F
100
AcDbEntity
  8
0
  6
Continuous
 62
     7
370
    25
100
AcDbLine
 10
-8.3246951673
 20
8.5693596455
 30
0.0
 11
-9.4918524548
 21
9.736516933
 31
0.0
  0
LINE
  5
275
330
1F
100
AcDbEntity
  8
0
  6
Continuous
 62
     7
370
    25
100
AcDbLine
 10
-16.7202795796
 20
10.0193596455
 30
0.0
 11
-17.3409846609
 21
10.6400647269
 31
0.0
  0
LINE
  5
276
330
1F
100
AcDbEntity
  8
0
  6
Continuous
 62
     7
370
    25
100
AcDbLine
 10
-17.42634
 20
10.6047093878
 30
0.0
 11
-17.42634
 21
9.3632992251
 31
0.0
  0
LINE
  5
277
330
1F
100
AcDbEntity
  8
0
  6
Continuous
 62
     7
370
    25
100
AcDbLine
 10
-17.3409846609
 20
9.327943886
 30
0.0
 11
-16.7202795796
 21
9.9486489674
 31
0.0
  0
LINE
  5
278
330
1F
100
AcDbEntity
  8
0
  6
Continuous
 62
     7
370
    25
100
AcDbLine
 10
-15.0581475452
 20
11.186516933
 30
0.0
 11
-16.2253048327
 21
10.0193596455
 31
0.0
  0
LINE
  5
279
330
1F
100
AcDbEntity
  8
0
  6
Continuous
 62
     7
370
    25
100
AcDbLine
 10
-16.2253048327
 20
9.9486489674
 30
0.0
 11
-15.0581475452
 21
8.7814916799
 31
0.0
  0
LINE
  5
27A
330
1F
100
AcDbEntity
  8
0
  6
Continuous
 62
     7
370
    25
100
AcDbLine
 10
-14.9727922061
 20
8.8168470189
 30
0.0
 11
-14.9727922061
 21
11.151161594
 31
0.0
  0
LINE
  5
27B
330
1F
100
AcDbEntity
  8
0
  6
Continuous
 62
     7
370
    25
100
AcDbLine
 10
9.2797204204
 20
10.0193596455
 30
0.0
 11
8.6590153391
 21
10.6400647269
 31
0.0
  0
LINE
  5
27C
330
1F
100
AcDbEntity
  8
0
  6
Continuous
 62
     7
370
    25
100
AcDbLine
 10
8.57366
 20
10.6047093878
 30
0.0
 11
8.57366
 21
9.3632992251
 31
0.0
  0
LINE
  5
27D
330
1F
100
AcDbEntity
  8
0
  6
Continuous
 62
     7
370
    25
100
AcDbLine
 10
8.6590153391
 20
9.327943886
 30
0.0
 11
9.2797204204
 21
9.9486489674
 31
0.0
  0
LINE
  5
27E
330
1F
100
AcDbEntity
  8
0
  6
Continuous
 62
     7
370
    25
100
AcDbLine
 10
17.3409846609
 20
10.6400647269
 30
0.0
 11
16.7202795796
 21
10.0193596455
 31
0.0
  0
LINE
  5
27F
330
1F
100
AcDbEntity
  8
0
  6
Continuous
 62
     7
370
    25
100
AcDbLine
 10
16.7202795796
 20
9.9486489674
 30
0.0
 11
17.3409846609
 21
9.327943886
 31
0.0
  0
LINE
  5
280
330
1F
100
AcDbEntity
  8
0
  6
Continuous
 62
     7
370
    25
100
AcDbLine
 10
17.42634
 20
9.3632992251
 30
0.0
 11
17.42634
 21
10.6047093878
 31
0.0
  0
LINE
  5
281
330
1F
100
AcDbEntity
  8
0
  6
Continuous
 62
     7
370
    25
100
AcDbLine
 10
9.4918524548
 20
9.736516933
 30
0.0
 11
8.3246951673
 21
8.5693596455
 31
0.0
  0
LINE
  5
282
330
1F
100
AcDbEntity
  8
0
  6
Continuous
 62
     7
370
    25
100
AcDbLine
 10
8.3600505063
 20
8.4840043065
 30
0.0
 11
10.6943650814
 21
8.4840043065
 31
0.0
  0
LINE
  5
283
330
1F
100
AcDbEntity
  8
0
  6
Continuous
 62
     7
370
    25
100
AcDbLine
 10
10.7297204204
 20
8.5693596455
 30
0.0
 11
9.5625631329
 21
9.736516933
 31
0.0
  0
LINE
  5
284
330
1F
100
AcDbEntity
  8
0
  6
Continuous
 62
     7
370
    25
100
AcDbLine
 10
10.9418524548
 20
11.186516933
 30
0.0
 11
9.7746951673
 21
10.0193596455
 31
0.0
  0
LINE
  5
285
330
1F
100
AcDbEntity
  8
0
  6
Continuous
 62
     7
370
    25
100
AcDbLine
 10
9.7746951673
 20
9.9486489674
 30
0.0
 11
10.9418524548
 21
8.7814916799
 31
0.0
  0
LINE
  5
286
330
1F
100
AcDbEntity
  8
0
  6
Continuous
 62
     7
370
    25
100
AcDbLine
 10
11.0272077939
 20
8.8168470189
 30
0.0
 11
11.0272077939
 21
11.151161594
 31
0.0
  0
LINE
  5
287
330
1F
100
AcDbEntity
  8
0
  6
Continuous
 62
     7
370
    25
100
AcDbLine
 10
23.6599144105
 20
-6.0644253137
 30
0.0
 11
22.5293939631
 21
-1.4568608747
 31
0.0
  0
LINE
  5
288
330
1F
100
AcDbEntity
  8
0
  6
Continuous
 62
     7
370
    25
100
AcDbLine
 10
22.4322746498
 20
-1.4568608747
 30
0.0
 11
21.3017542024
 21
-6.0644253137
 31
0.0
  0
LINE
  5
289
330
1F
100
AcDbEntity
  8
0
  6
Continuous
 62
     7
370
    25
100
AcDbLine
 10
21.350313859
 20
-6.12634
 30
0.0
 11
23.6113547539
 21
-6.12634
 31
0.0
  0
LINE
  5
28A
330
1F
100
AcDbEntity
  8
0
  6
Continuous
 62
     7
370
    25
100
AcDbLine
 10
23.8854446498
 20
4.4656984485
 30
0.0
 11
22.818966794
 21
0.1191468626
 31
0.0
  0
LINE
  5
28B
330
1F
100
AcDbEntity
  8
0
  6
Continuous
 62
     7
370
    25
100
AcDbLine
 10
22.818966794
 20
-0.1191468626
 30
0.0
 11
23.8854446498
 21
-4.4656984485
 31
0.0
  0
LINE
  5
28C
330
1F
100
AcDbEntity
  8
0
  6
Continuous
 62
     7
370
    25
100
AcDbLine
 10
23.9840043065
 20
-4.4537837622
 30
0.0
 11
23.9840043065
 21
4.4537837622
 31
0.0
  0
LINE
  5
28D
330
1F
100
AcDbEntity
  8
0
  6
Continuous
 62
     7
370
    25
100
AcDbLine
 10
21.0762239631
 20
-4.4656984485
 30
0.0
 11
22.1427018189
 21
-0.1191468626
 31
0.0
  0
LINE
  5
28E
330
1F
100
AcDbEntity
  8
0
  6
Continuous
 62
     7
370
    25
100
AcDbLine
 10
22.1427018189
 20
0.1191468626
 30
0.0
 11
21.0762239631
 21
4.4656984485
 31
0.0
  0
LINE
  5
28F
330
1F
100
AcDbEntity
  8
0
  6
Continuous
 62
     7
370
    25
100
AcDbLine
 10
20.9776643065
 20
4.4537837622
 30
0.0
 11
20.9776643065
 21
-4.4537837622
 31
0.0
  0
LINE
  5
290
330
1F
100
AcDbEntity
  8
0
  6
Continuous
 62
     7
370
    25
100
AcDbLine
 10
21.3017542024
 20
6.0644253137
 30
0.0
 11
22.4322746498
 21
1.4568608747
 31
0.0
  0
LINE
  5
291
330
1F
100
AcDbEntity
  8
0
  6
Continuous
 62
     7
370
    25
100
AcDbLine
 10
22.5293939631
 20
1.4568608747
 30
0.0
 11
23.6599144105
 21
6.0644253137
 31
0.0
  0
LINE
  5
292
330
1F
100
AcDbEntity
  8
0
  6
Continuous
 62
     7
370
    25
100
AcDbLine
 10
23.6113547539
 20
6.12634
 30
0.0
 11
21.350313859
 21
6.12634
 31
0.0
  0
LINE
  5
293
330
1F
100
AcDbEntity
  8
0
  6
Continuous
 62
     7
370
    25
100
AcDbLine
 10
-21.3017542024
 20
-6.0644253137
 30
0.0
 11
-22.4322746498
 21
-1.4568608747
 31
0.0
  0
LINE
  5
294
330
1F
100
AcDbEntity
  8
0
  6
Continuous
 62
     7
370
    25
100
AcDbLine
 10
-22.5293939631
 20
-1.4568608747
 30
0.0
 11
-23.6599144105
 21
-6.0644253137
 31
0.0
  0
LINE
  5
295
330
1F
100
AcDbEntity
  8
0
  6
Continuous
 62
     7
370
    25
100
AcDbLine
 10
-23.6113547539
 20
-6.12634
 30
0.0
 11
-21.350313859
 21
-6.12634
 31
0.0
  0
LINE
  5
296
330
1F
100
AcDbEntity
  8
0
  6
Continuous
 62
     7
370
    25
100
AcDbLine
 10
-23.8854446498
 20
-4.4656984485
 30
0.0
 11
-22.818966794
 21
-0.1191468626
 31
0.0
  0
LINE
  5
297
330
1F
100
AcDbEntity
  8
0
  6
Continuous
 62
     7
370
    25
100
AcDbLine
 10
-22.818966794
 20
0.1191468626
 30
0.0
 11
-23.8854446498
 21
4.4656984485
 31
0.0
  0
LINE
  5
298
330
1F
100
AcDbEntity
  8
0
  6
Continuous
 62
     7
370
    25
100
AcDbLine
 10
-23.9840043065
 20
4.4537837622
 30
0.0
 11
-23.9840043065
 21
-4.4537837622
 31
0.0
  0
LINE
  5
299
330
1F
100
AcDbEntity
  8
0
  6
Continuous
 62
     7
370
    25
100
AcDbLine
 10
-21.0762239631
 20
4.4656984485
 30
0.0
 11
-22.1427018189
 21
0.1191468626
 31
0.0
  0
LINE
  5
29A
330
1F
100
AcDbEntity
  8
0
  6
Continuous
 62
     7
370
    25
100
AcDbLine
 10
-22.1427018189
 20
-0.1191468626
 30
0.0
 11
-21.0762239631
 21
-4.4656984485
 31
0.0
  0
LINE
  5
29B
330
1F
100
AcDbEntity
  8
0
  6
Continuous
 62
     7
370
    25
100
AcDbLine
 10
-20.9776643065
 20
-4.4537837622
 30
0.0
 11
-20.9776643065
 21
4.4537837622
 31
0.0
  0
LINE
  5
29C
330
1F
100
AcDbEntity
  8
0
  6
Continuous
 62
     7
370
    25
100
AcDbLine
 10
-23.6599144105
 20
6.0644253137
 30
0.0
 11
-22.5293939631
 21
1.4568608747
 31
0.0
  0
LINE
  5
29D
330
1F
100
AcDbEntity
  8
0
  6
Continuous
 62
     7
370
    25
100
AcDbLine
 10
-22.4322746498
 20
1.4568608747
 30
0.0
 11
-21.3017542024
 21
6.0644253137
 31
0.0
  0
LINE
  5
29E
330
1F
100
AcDbEntity
  8
0
  6
Continuous
 62
     7
370
    25
100
AcDbLine
 10
-21.350313859
 20
6.12634
 30
0.0
 11
-23.6113547539
 21
6.12634
 31
0.0
  0
LINE
  5
29F
330
1F
100
AcDbEntity
  8
0
  6
Continuous
 62
     7
370
    25
100
AcDbLine
 10
-20.0
 20
12.4840043065
 30
0.0
 11
20.0
 21
12.4840043065
 31
0.0
  0
LINE
  5
2A0
330
1F
100
AcDbEntity
  8
0
  6
Continuous
 62
     7
370
    25
100
AcDbLine
 10
20.0
 20
12.4840043065
 30
0.0
 11
20.0
 21
7.12634
 31
0.0
  0
LINE
  5
2A1
330
1F
100
AcDbEntity
  8
0
  6
Continuous
 62
     7
370
    25
100
AcDbLine
 10
20.0
 20
7.12634
 30
0.0
 11
24.9840043065
 21
7.12634
 31
0.0
  0
LINE
  5
2A2
330
1F
100
AcDbEntity
  8
0
  6
Continuous
 62
     7
370
    25
100
AcDbLine
 10
24.9840043065
 20
7.12634
 30
0.0
 11
24.9840043065
 21
-7.12634
 31
0.0
  0
LINE
  5
2A3
330
1F
100
AcDbEntity
  8
0
  6
Continuous
 62
     7
370
    25
100
AcDbLine
 10
24.9840043065
 20
-7.12634
 30
0.0
 11
20.0
 21
-7.12634
 31
0.0
  0
LINE
  5
2A4
330
1F
100
AcDbEntity
  8
0
  6
Continuous
 62
     7
370
    25
100
AcDbLine
 10
20.0
 20
-7.12634
 30
0.0
 11
20.0
 21
-12.4840043065
 31
0.0
  0
LINE
  5
2A5
330
1F
100
AcDbEntity
  8
0
  6
Continuous
 62
     7
370
    25
100
AcDbLine
 10
20.0
 20
-12.4840043065
 30
0.0
 11
-20.0
 21
-12.4840043065
 31
0.0
  0
LINE
  5
2A6
330
1F
100
AcDbEntity
  8
0
  6
Continuous
 62
     7
370
    25
100
AcDbLine
 10
-20.0
 20
-12.4840043065
 30
0.0
 11
-20.0
 21
-7.12634
 31
0.0
  0
LINE
  5
2A7
330
1F
100
AcDbEntity
  8
0
  6
Continuous
 62
     7
370
    25
100
AcDbLine
 10
-24.9840043065
 20
-7.12634
 30
0.0
 11
-24.9840043065
 21
7.12634
 31
0.0
  0
LINE
  5
2A8
330
1F
100
AcDbEntity
  8
0
  6
Continuous
 62
     7
370
    25
100
AcDbLine
 10
-24.9840043065
 20
7.12634
 30
0.0
 11
-20.0
 21
7.12634
 31
0.0
  0
LINE
  5
2A9
330
1F
100
AcDbEntity
  8
0
  6
Continuous
 62
     7
370
    25
100
AcDbLine
 10
-20.0
 20
7.12634
 30
0.0
 11
-20.0
 21
12.4840043065
 31
0.0
  0
LINE
  5
2AA
330
1F
100
AcDbEntity
  8
0
  6
Continuous
 62
     7
370
    25
100
AcDbLine
 10
-8.5163735705
 20
-4.7866939376
 30
0.0
 11
-12.4831653609
 21
-0.7196692522
 31
0.0
  0
LINE
  5
2AB
330
1F
100
AcDbEntity
  8
0
  6
Continuous
 62
     7
370
    25
100
AcDbLine
 10
-12.7695146391
 20
-0.7196692522
 30
0.0
 11
-16.7363064295
 21
-4.7866939376
 31
0.0
  0
LINE
  5
2AC
330
1F
100
AcDbEntity
  8
0
  6
Continuous
 62
     7
370
    25
100
AcDbLine
 10
-16.5931317905
 20
-5.12634
 30
0.0
 11
-8.6595482095
 21
-5.12634
 31
0.0
  0
LINE
  5
2AD
330
1F
100
AcDbEntity
  8
0
  6
Continuous
 62
     7
370
    25
100
AcDbLine
 10
8.5163735705
 20
4.7866939376
 30
0.0
 11
12.4831653609
 21
0.7196692522
 31
0.0
  0
LINE
  5
2AE
330
1F
100
AcDbEntity
  8
0
  6
Continuous
 62
     7
370
    25
100
AcDbLine
 10
12.7695146391
 20
0.7196692522
 30
0.0
 11
16.7363064295
 21
4.7866939376
 31
0.0
  0
LINE
  5
2AF
330
1F
100
AcDbEntity
  8
0
  6
Continuous
 62
     7
370
    25
100
AcDbLine
 10
16.5931317905
 20
5.12634
 30
0.0
 11
8.6595482095
 21
5.12634
 31
0.0
  0
LINE
  5
2B0
330
1F
100
AcDbEntity
  8
0
  6
Continuous
 62
     7
370
    25
100
AcDbLine
 10
7.9695146391
 20
-4.2016171478
 30
0.0
 11
11.9313773768
 21
-0.1396460624
 31
0.0
  0
LINE
  5
2B1
330
1F
100
AcDbEntity
  8
0
  6
Continuous
 62
     7
370
    25
100
AcDbLine
 10
11.9313773768
 20
0.1396460624
 30
0.0
 11
7.9695146391
 21
4.2016171478
 31
0.0
  0
LINE
  5
2B2
330
1F
100
AcDbEntity
  8
0
  6
Continuous
 62
     7
370
    25
100
AcDbLine
 10
7.62634
 20
4.0619710854
 30
0.0
 11
7.62634
 21
-4.0619710854
 31
0.0
  0
LINE
  5
2B3
330
1F
100
AcDbEntity
  8
0
  6
Continuous
 62
     7
370
    25
100
AcDbLine
 10
17.2831653609
 20
4.2016171478
 30
0.0
 11
13.3213026232
 21
0.1396460624
 31
0.0
  0
LINE
  5
2B4
330
1F
100
AcDbEntity
  8
0
  6
Continuous
 62
     7
370
    25
100
AcDbLine
 10
13.3213026232
 20
-0.1396460624
 30
0.0
 11
17.2831653609
 21
-4.2016171478
 31
0.0
  0
LINE
  5
2B5
330
1F
100
AcDbEntity
  8
0
  6
Continuous
 62
     7
370
    25
100
AcDbLine
 10
17.62634
 20
-4.0619710854
 30
0.0
 11
17.62634
 21
4.0619710854
 31
0.0
  0
LINE
  5
2B6
330
1F
100
AcDbEntity
  8
0
  6
Continuous
 62
     7
370
    25
100
AcDbLine
 10
4.9721636194
 20
-4.7742820366
 30
0.0
 11
0.1299168033
 21
-0.6371147794
 31
0.0
  0
LINE
  5
2B7
330
1F
100
AcDbEntity
  8
0
  6
Continuous
 62
     7
370
    25
100
AcDbLine
 10
-0.1299168033
 20
-0.6371147794
 30
0.0
 11
-4.9721636194
 21
-4.7742820366
 31
0.0
  0
LINE
  5
2B8
330
1F
100
AcDbEntity
  8
0
  6
Continuous
 62
     7
370
    25
100
AcDbLine
 10
-4.8422468161
 20
-5.12634
 30
0.0
 11
4.8422468161
 21
-5.12634
 31
0.0
  0
LINE
  5
2B9
330
1F
100
AcDbEntity
  8
0
  6
Continuous
 62
     7
370
    25
100
AcDbLine
 10
-7.9695146391
 20
4.2016171478
 30
0.0
 11
-11.9313773768
 21
0.1396460624
 31
0.0
  0
LINE
  5
2BA
330
1F
100
AcDbEntity
  8
0
  6
Continuous
 62
     7
370
    25
100
AcDbLine
 10
-11.9313773768
 20
-0.1396460624
 30
0.0
 11
-7.9695146391
 21
-4.2016171478
 31
0.0
  0
LINE
  5
2BB
330
1F
100
AcDbEntity
  8
0
  6
Continuous
 62
     7
370
    25
100
AcDbLine
 10
-7.62634
 20
-4.0619710854
 30
0.0
 11
-7.62634
 21
4.0619710854
 31
0.0
  0
LINE
  5
2BC
330
1F
100
AcDbEntity
  8
0
  6
Continuous
 62
     7
370
    25
100
AcDbLine
 10
-17.2831653609
 20
-4.2016171478
 30
0.0
 11
-13.3213026232
 21
-0.1396460624
 31
0.0
  0
LINE
  5
2BD
330
1F
100
AcDbEntity
  8
0
  6
Continuous
 62
     7
370
    25
100
AcDbLine
 10
-13.3213026232
 20
0.1396460624
 30
0.0
 11
-17.2831653609
 21
4.2016171478
 31
0.0
  0
LINE
  5
2BE
330
1F
100
AcDbEntity
  8
0
  6
Continuous
 62
     7
370
    25
100
AcDbLine
 10
-17.62634
 20
4.0619710854
 30
0.0
 11
-17.62634
 21
-4.0619710854
 31
0.0
  0
LINE
  5
2BF
330
1F
100
AcDbEntity
  8
0
  6
Continuous
 62
     7
370
    25
100
AcDbLine
 10
-16.7363064295
 20
4.7866939376
 30
0.0
 11
-12.7695146391
 21
0.7196692522
 31
0.0
  0
LINE
  5
2C0
330
1F
100
AcDbEntity
  8
0
  6
Continuous
 62
     7
370
    25
100
AcDbLine
 10
-12.4831653609
 20
0.7196692522
 30
0.0
 11
-8.5163735705
 21
4.7866939376
 31
0.0
  0
LINE
  5
2C1
330
1F
100
AcDbEntity
  8
0
  6
Continuous
 62
     7
370
    25
100
AcDbLine
 10
-8.6595482095
 20
5.12634
 30
0.0
 11
-16.5931317905
 21
5.12634
 31
0.0
  0
LINE
  5
2C2
330
1F
100
AcDbEntity
  8
0
  6
Continuous
 62
     7
370
    25
100
AcDbLine
 10
16.7363064295
 20
-4.7866939376
 30
0.0
 11
12.7695146391
 21
-0.7196692522
 31
0.0
  0
LINE
  5
2C3
330
1F
100
AcDbEntity
  8
0
  6
Continuous
 62
     7
370
    25
100
AcDbLine
 10
12.4831653609
 20
-0.7196692522
 30
0.0
 11
8.5163735705
 21
-4.7866939376
 31
0.0
  0
LINE
  5
2C4
330
1F
100
AcDbEntity
  8
0
  6
Continuous
 62
     7
370
    25
100
AcDbLine
 10
8.6595482095
 20
-5.12634
 30
0.0
 11
16.5931317905
 21
-5.12634
 31
0.0
  0
LINE
  5
2C5
330
1F
100
AcDbEntity
  8
0
  6
Continuous
 62
     7
370
    25
100
AcDbLine
 10
5.6700831967
 20
4.3183472206
 30
0.0
 11
0.7937512438
 21
0.1520579634
 31
0.0
  0
LINE
  5
2C6
330
1F
100
AcDbEntity
  8
0
  6
Continuous
 62
     7
370
    25
100
AcDbLine
 10
0.7937512438
 20
-0.1520579634
 30
0.0
 11
5.6700831967
 21
-4.3183472206
 31
0.0
  0
LINE
  5
2C7
330
1F
100
AcDbEntity
  8
0
  6
Continuous
 62
     7
370
    25
100
AcDbLine
 10
6.0
 20
-4.1662892572
 30
0.0
 11
6.0
 21
4.1662892572
 31
0.0
  0
LINE
  5
2C8
330
1F
100
AcDbEntity
  8
0
  6
Continuous
 62
     7
370
    25
100
AcDbLine
 10
-5.6700831967
 20
-4.3183472206
 30
0.0
 11
-0.7937512438
 21
-0.1520579634
 31
0.0
  0
LINE
  5
2C9
330
1F
100
AcDbEntity
  8
0
  6
Continuous
 62
     7
370
    25
100
AcDbLine
 10
-0.7937512438
 20
0.1520579634
 30
0.0
 11
-5.6700831967
 21
4.3183472206
 31
0.0
  0
LINE
  5
2CA
330
1F
100
AcDbEntity
  8
0
  6
Continuous
 62
     7
370
    25
100
AcDbLine
 10
-6.0
 20
4.1662892572
 30
0.0
 11
-6.0
 21
-4.1662892572
 31
0.0
  0
LINE
  5
2CB
330
1F
100
AcDbEntity
  8
0
  6
Continuous
 62
     7
370
    25
100
AcDbLine
 10
-4.9721636194
 20
4.7742820366
 30
0.0
 11
-0.1299168033
 21
0.6371147794
 31
0.0
  0
LINE
  5
2CC
330
1F
100
AcDbEntity
  8
0
  6
Continuous
 62
     7
370
    25
100
AcDbLine
 10
0.1299168033
 20
0.6371147794
 30
0.0
 11
4.9721636194
 21
4.7742820366
 31
0.0
  0
LINE
  5
2CD
330
1F
100
AcDbEntity
  8
0
  6
Continuous
 62
     7
370
    25
100
AcDbLine
 10
4.8422468161
 20
5.12634
 30
0.0
 11
-4.8422468161
 21
5.12634
 31
0.0
  0
LINE
  5
2CE
330
1F
100
AcDbEntity
  8
0
  6
Continuous
 62
     7
370
    25
100
AcDbLine
 10
-20.0
 20
-7.12634
 30
0.0
 11
-24.9840043065
 21
-7.12634
 31
0.0
  0
ARC
  5
2CF
330
1F
100
AcDbEntity
  8
0
  6
Continuous
 62
     7
370
    25
100
AcDbCircle
 10
5.95
 20
-8.8510073588
 30
0.0
 40
0.0499999999999998
100
AcDbArc
 50
360.0
 51
104.0647305315
  0
ARC
  5
2D0
330
1F
100
AcDbEntity
  8
0
  6
Continuous
 62
     7
370
    25
100
AcDbCircle
 10
1.4402228719
 20
-9.9808343065
 30
0.0
 40
0.0500000000000034
100
AcDbArc
 50
104.0647305315
 51
255.9352694685
  0
ARC
  5
2D1
330
1F
100
AcDbEntity
  8
0
  6
Continuous
 62
     7
370
    25
100
AcDbCircle
 10
5.95
 20
-11.1106612541
 30
0.0
 40
0.0499999999999989
100
AcDbArc
 50
255.9352694685
 51
0.0
  0
ARC
  5
2D2
330
1F
100
AcDbEntity
  8
0
  6
Continuous
 62
     7
370
    25
100
AcDbCircle
 10
10.6943650814
 20
-11.4340043065
 30
0.0
 40
0.0500000000000007
100
AcDbArc
 50
270.0
 51
45.0
  0
ARC
  5
2D3
330
1F
100
AcDbEntity
  8
0
  6
Continuous
 62
     7
370
    25
100
AcDbCircle
 10
9.5272077939
 20
-10.2668470189
 30
0.0
 40
0.0500000000000024
100
AcDbArc
 50
45.0
 51
135.0
  0
ARC
  5
2D4
330
1F
100
AcDbEntity
  8
0
  6
Continuous
 62
     7
370
    25
100
AcDbCircle
 10
8.3600505063
 20
-11.4340043065
 30
0.0
 40
0.0500000000000007
100
AcDbArc
 50
135.0
 51
270.0
  0
ARC
  5
2D5
330
1F
100
AcDbEntity
  8
0
  6
Continuous
 62
     7
370
    25
100
AcDbCircle
 10
15.0227922061
 20
-11.151161594
 30
0.0
 40
0.0500000000000012
100
AcDbArc
 50
180.0
 51
315.0
  0
ARC
  5
2D6
330
1F
100
AcDbEntity
  8
0
  6
Continuous
 62
     7
370
    25
100
AcDbCircle
 10
16.1899494937
 20
-9.9840043065
 30
0.0
 40
0.0499999999999899
100
AcDbArc
 50
315.0
 51
45.0
  0
ARC
  5
2D7
330
1F
100
AcDbEntity
  8
0
  6
Continuous
 62
     7
370
    25
100
AcDbCircle
 10
15.0227922061
 20
-8.8168470189
 30
0.0
 40
0.0500000000000025
100
AcDbArc
 50
45.0
 51
180.0
  0
ARC
  5
2D8
330
1F
100
AcDbEntity
  8
0
  6
Continuous
 62
     7
370
    25
100
AcDbCircle
 10
15.3056349186
 20
-8.5340043065
 30
0.0
 40
0.0500000000000025
100
AcDbArc
 50
90.0
 51
225.0
  0
ARC
  5
2D9
330
1F
100
AcDbEntity
  8
0
  6
Continuous
 62
     7
370
    25
100
AcDbCircle
 10
16.4727922061
 20
-9.701161594
 30
0.0
 40
0.0500000000000012
100
AcDbArc
 50
225.0
 51
315.0
  0
ARC
  5
2DA
330
1F
100
AcDbEntity
  8
0
  6
Continuous
 62
     7
370
    25
100
AcDbCircle
 10
17.6399494937
 20
-8.5340043065
 30
0.0
 40
0.0500000000000012
100
AcDbArc
 50
315.0
 51
90.0
  0
ARC
  5
2DB
330
1F
100
AcDbEntity
  8
0
  6
Continuous
 62
     7
370
    25
100
AcDbCircle
 10
17.6399494937
 20
-11.4340043065
 30
0.0
 40
0.0500000000000007
100
AcDbArc
 50
270.0
 51
45.0
  0
ARC
  5
2DC
330
1F
100
AcDbEntity
  8
0
  6
Continuous
 62
     7
370
    25
100
AcDbCircle
 10
16.4727922061
 20
-10.2668470189
 30
0.0
 40
0.0499999999999974
100
AcDbArc
 50
45.0
 51
135.0
  0
ARC
  5
2DD
330
1F
100
AcDbEntity
  8
0
  6
Continuous
 62
     7
370
    25
100
AcDbCircle
 10
15.3056349186
 20
-11.4340043065
 30
0.0
 40
0.0500000000000043
100
AcDbArc
 50
135.0
 51
270.0
  0
ARC
  5
2DE
330
1F
100
AcDbEntity
  8
0
  6
Continuous
 62
     7
370
    25
100
AcDbCircle
 10
4.3601989034
 20
-11.4340043065
 30
0.0
 40
0.0500000000000029
100
AcDbArc
 50
270.0
 51
75.9352694685
  0
ARC
  5
2DF
330
1F
100
AcDbEntity
  8
0
  6
Continuous
 62
     7
370
    25
100
AcDbCircle
 10
0.0
 20
-10.8055580452
 30
0.0
 40
0.5000000000000371
100
AcDbArc
 50
75.9352694685
 51
104.0647305315
  0
ARC
  5
2E0
330
1F
100
AcDbEntity
  8
0
  6
Continuous
 62
     7
370
    25
100
AcDbCircle
 10
-4.3601989034
 20
-11.4340043065
 30
0.0
 40
0.0499999999999993
100
AcDbArc
 50
104.0647305315
 51
270.0
  0
ARC
  5
2E1
330
1F
100
AcDbEntity
  8
0
  6
Continuous
 62
     7
370
    25
100
AcDbCircle
 10
-4.3601989034
 20
-8.5276643065
 30
0.0
 40
0.0500000000000007
100
AcDbArc
 50
90.0
 51
255.9352694685
  0
ARC
  5
2E2
330
1F
100
AcDbEntity
  8
0
  6
Continuous
 62
     7
370
    25
100
AcDbCircle
 10
0.0
 20
-9.1561105677
 30
0.0
 40
0.500000000000013
100
AcDbArc
 50
255.9352694685
 51
284.0647305315
  0
ARC
  5
2E3
330
1F
100
AcDbEntity
  8
0
  6
Continuous
 62
     7
370
    25
100
AcDbCircle
 10
4.3601989034
 20
-8.5276643065
 30
0.0
 40
0.0500000000000012
100
AcDbArc
 50
284.0647305315
 51
90.0
  0
ARC
  5
2E4
330
1F
100
AcDbEntity
  8
0
  6
Continuous
 62
     7
370
    25
100
AcDbCircle
 10
-5.95
 20
-11.1106612541
 30
0.0
 40
0.0500000000000016
100
AcDbArc
 50
180.0
 51
284.0647305315
  0
ARC
  5
2E5
330
1F
100
AcDbEntity
  8
0
  6
Continuous
 62
     7
370
    25
100
AcDbCircle
 10
-1.4402228719
 20
-9.9808343065
 30
0.0
 40
0.0499999999999995
100
AcDbArc
 50
284.0647305315
 51
75.9352694685
  0
ARC
  5
2E6
330
1F
100
AcDbEntity
  8
0
  6
Continuous
 62
     7
370
    25
100
AcDbCircle
 10
-5.95
 20
-8.8510073588
 30
0.0
 40
0.0499999999999972
100
AcDbArc
 50
75.9352694685
 51
180.0
  0
ARC
  5
2E7
330
1F
100
AcDbEntity
  8
0
  6
Continuous
 62
     7
370
    25
100
AcDbCircle
 10
-15.3056349186
 20
-8.5340043065
 30
0.0
 40
0.0500000000000007
100
AcDbArc
 50
315.0
 51
90.0
  0
ARC
  5
2E8
330
1F
100
AcDbEntity
  8
0
  6
Continuous
 62
     7
370
    25
100
AcDbCircle
 10
-17.6399494937
 20
-8.5340043065
 30
0.0
 40
0.0500000000000007
100
AcDbArc
 50
90.0
 51
225.0
  0
ARC
  5
2E9
330
1F
100
AcDbEntity
  8
0
  6
Continuous
 62
     7
370
    25
100
AcDbCircle
 10
-16.4727922061
 20
-9.701161594
 30
0.0
 40
0.0500000000000037
100
AcDbArc
 50
225.0
 51
315.0
  0
ARC
  5
2EA
330
1F
100
AcDbEntity
  8
0
  6
Continuous
 62
     7
370
    25
100
AcDbCircle
 10
-10.9772077939
 20
-8.8168470189
 30
0.0
 40
0.0500000000000007
100
AcDbArc
 50
45.0
 51
180.0
  0
ARC
  5
2EB
330
1F
100
AcDbEntity
  8
0
  6
Continuous
 62
     7
370
    25
100
AcDbCircle
 10
-10.9772077939
 20
-11.151161594
 30
0.0
 40
0.0500000000000012
100
AcDbArc
 50
180.0
 51
315.0
  0
ARC
  5
2EC
330
1F
100
AcDbEntity
  8
0
  6
Continuous
 62
     7
370
    25
100
AcDbCircle
 10
-9.8100505063
 20
-9.9840043065
 30
0.0
 40
0.0500000000000012
100
AcDbArc
 50
315.0
 51
45.0
  0
ARC
  5
2ED
330
1F
100
AcDbEntity
  8
0
  6
Continuous
 62
     7
370
    25
100
AcDbCircle
 10
-8.3600505063
 20
-11.4340043065
 30
0.0
 40
0.0500000000000007
100
AcDbArc
 50
270.0
 51
45.0
  0
ARC
  5
2EE
330
1F
100
AcDbEntity
  8
0
  6
Continuous
 62
     7
370
    25
100
AcDbCircle
 10
-9.5272077939
 20
-10.2668470189
 30
0.0
 40
0.0499999999999961
100
AcDbArc
 50
45.0
 51
135.0
  0
ARC
  5
2EF
330
1F
100
AcDbEntity
  8
0
  6
Continuous
 62
     7
370
    25
100
AcDbCircle
 10
-10.6943650814
 20
-11.4340043065
 30
0.0
 40
0.0500000000000012
100
AcDbArc
 50
135.0
 51
270.0
  0
ARC
  5
2F0
330
1F
100
AcDbEntity
  8
0
  6
Continuous
 62
     7
370
    25
100
AcDbCircle
 10
-8.62366
 20
-9.3632992251
 30
0.0
 40
0.0500000000000012
100
AcDbArc
 50
0.0
 51
135.0
  0
ARC
  5
2F1
330
1F
100
AcDbEntity
  8
0
  6
Continuous
 62
     7
370
    25
100
AcDbCircle
 10
-9.2443650814
 20
-9.9840043065
 30
0.0
 40
0.0500000000000087
100
AcDbArc
 50
135.0
 51
225.0
  0
ARC
  5
2F2
330
1F
100
AcDbEntity
  8
0
  6
Continuous
 62
     7
370
    25
100
AcDbCircle
 10
-8.62366
 20
-10.6047093878
 30
0.0
 40
0.0500000000000012
100
AcDbArc
 50
225.0
 51
0.0
  0
ARC
  5
2F3
330
1F
100
AcDbEntity
  8
0
  6
Continuous
 62
     7
370
    25
100
AcDbCircle
 10
-15.3056349186
 20
-11.4340043065
 30
0.0
 40
0.0500000000000012
100
AcDbArc
 50
270.0
 51
45.0
  0
ARC
  5
2F4
330
1F
100
AcDbEntity
  8
0
  6
Continuous
 62
     7
370
    25
100
AcDbCircle
 10
-16.4727922061
 20
-10.2668470189
 30
0.0
 40
0.0500000000000099
100
AcDbArc
 50
45.0
 51
135.0
  0
ARC
  5
2F5
330
1F
100
AcDbEntity
  8
0
  6
Continuous
 62
     7
370
    25
100
AcDbCircle
 10
-17.6399494937
 20
-11.4340043065
 30
0.0
 40
0.0500000000000043
100
AcDbArc
 50
135.0
 51
270.0
  0
ARC
  5
2F6
330
1F
100
AcDbEntity
  8
0
  6
Continuous
 62
     7
370
    25
100
AcDbCircle
 10
-8.3600505063
 20
-8.5340043065
 30
0.0
 40
0.0500000000000012
100
AcDbArc
 50
315.0
 51
90.0
  0
ARC
  5
2F7
330
1F
100
AcDbEntity
  8
0
  6
Continuous
 62
     7
370
    25
100
AcDbCircle
 10
-10.6943650814
 20
-8.5340043065
 30
0.0
 40
0.0500000000000012
100
AcDbArc
 50
90.0
 51
225.0
  0
ARC
  5
2F8
330
1F
100
AcDbEntity
  8
0
  6
Continuous
 62
     7
370
    25
100
AcDbCircle
 10
-9.5272077939
 20
-9.701161594
 30
0.0
 40
0.0500000000000024
100
AcDbArc
 50
225.0
 51
315.0
  0
ARC
  5
2F9
330
1F
100
AcDbEntity
  8
0
  6
Continuous
 62
     7
370
    25
100
AcDbCircle
 10
-17.37634
 20
-9.3632992251
 30
0.0
 40
0.0500000000000049
100
AcDbArc
 50
45.0
 51
180.0
  0
ARC
  5
2FA
330
1F
100
AcDbEntity
  8
0
  6
Continuous
 62
     7
370
    25
100
AcDbCircle
 10
-17.37634
 20
-10.6047093878
 30
0.0
 40
0.0500000000000007
100
AcDbArc
 50
180.0
 51
315.0
  0
ARC
  5
2FB
330
1F
100
AcDbEntity
  8
0
  6
Continuous
 62
     7
370
    25
100
AcDbCircle
 10
-16.7556349186
 20
-9.9840043065
 30
0.0
 40
0.0499999999999961
100
AcDbArc
 50
315.0
 51
45.0
  0
ARC
  5
2FC
330
1F
100
AcDbEntity
  8
0
  6
Continuous
 62
     7
370
    25
100
AcDbCircle
 10
-15.0227922061
 20
-8.8168470189
 30
0.0
 40
0.0500000000000012
100
AcDbArc
 50
0.0
 51
135.0
  0
ARC
  5
2FD
330
1F
100
AcDbEntity
  8
0
  6
Continuous
 62
     7
370
    25
100
AcDbCircle
 10
-16.1899494937
 20
-9.9840043065
 30
0.0
 40
0.0500000000000062
100
AcDbArc
 50
135.0
 51
225.0
  0
ARC
  5
2FE
330
1F
100
AcDbEntity
  8
0
  6
Continuous
 62
     7
370
    25
100
AcDbCircle
 10
-15.0227922061
 20
-11.151161594
 30
0.0
 40
0.0500000000000025
100
AcDbArc
 50
225.0
 51
360.0
  0
ARC
  5
2FF
330
1F
100
AcDbEntity
  8
0
  6
Continuous
 62
     7
370
    25
100
AcDbCircle
 10
8.62366
 20
-9.3632992251
 30
0.0
 40
0.0500000000000025
100
AcDbArc
 50
45.0
 51
180.0
  0
ARC
  5
300
330
1F
100
AcDbEntity
  8
0
  6
Continuous
 62
     7
370
    25
100
AcDbCircle
 10
8.62366
 20
-10.6047093878
 30
0.0
 40
0.0500000000000007
100
AcDbArc
 50
180.0
 51
315.0
  0
ARC
  5
301
330
1F
100
AcDbEntity
  8
0
  6
Continuous
 62
     7
370
    25
100
AcDbCircle
 10
9.2443650814
 20
-9.9840043065
 30
0.0
 40
0.0499999999999986
100
AcDbArc
 50
315.0
 51
45.0
  0
ARC
  5
302
330
1F
100
AcDbEntity
  8
0
  6
Continuous
 62
     7
370
    25
100
AcDbCircle
 10
17.37634
 20
-9.3632992251
 30
0.0
 40
0.0500000000000024
100
AcDbArc
 50
0.0
 51
135.0
  0
ARC
  5
303
330
1F
100
AcDbEntity
  8
0
  6
Continuous
 62
     7
370
    25
100
AcDbCircle
 10
16.7556349186
 20
-9.9840043065
 30
0.0
 40
0.0500000000000112
100
AcDbArc
 50
135.0
 51
225.0
  0
ARC
  5
304
330
1F
100
AcDbEntity
  8
0
  6
Continuous
 62
     7
370
    25
100
AcDbCircle
 10
17.37634
 20
-10.6047093878
 30
0.0
 40
0.0500000000000012
100
AcDbArc
 50
225.0
 51
0.0
  0
ARC
  5
305
330
1F
100
AcDbEntity
  8
0
  6
Continuous
 62
     7
370
    25
100
AcDbCircle
 10
10.6943650814
 20
-8.5340043065
 30
0.0
 40
0.0500000000000025
100
AcDbArc
 50
315.0
 51
90.0
  0
ARC
  5
306
330
1F
100
AcDbEntity
  8
0
  6
Continuous
 62
     7
370
    25
100
AcDbCircle
 10
8.3600505063
 20
-8.5340043065
 30
0.0
 40
0.0500000000000012
100
AcDbArc
 50
90.0
 51
225.0
  0
ARC
  5
307
330
1F
100
AcDbEntity
  8
0
  6
Continuous
 62
     7
370
    25
100
AcDbCircle
 10
9.5272077939
 20
-9.701161594
 30
0.0
 40
0.0500000000000012
100
AcDbArc
 50
225.0
 51
315.0
  0
ARC
  5
308
330
1F
100
AcDbEntity
  8
0
  6
Continuous
 62
     7
370
    25
100
AcDbCircle
 10
10.9772077939
 20
-8.8168470189
 30
0.0
 40
0.0500000000000012
100
AcDbArc
 50
0.0
 51
135.0
  0
ARC
  5
309
330
1F
100
AcDbEntity
  8
0
  6
Continuous
 62
     7
370
    25
100
AcDbCircle
 10
9.8100505063
 20
-9.9840043065
 30
0.0
 40
0.0500000000000024
100
AcDbArc
 50
135.0
 51
225.0
  0
ARC
  5
30A
330
1F
100
AcDbEntity
  8
0
  6
Continuous
 62
     7
370
    25
100
AcDbCircle
 10
10.9772077939
 20
-11.151161594
 30
0.0
 40
0.0500000000000012
100
AcDbArc
 50
225.0
 51
0.0
  0
ARC
  5
30B
330
1F
100
AcDbEntity
  8
0
  6
Continuous
 62
     7
370
    25
100
AcDbCircle
 10
5.95
 20
11.1106612541
 30
0.0
 40
0.0499999999999991
100
AcDbArc
 50
360.0
 51
104.0647305315
  0
ARC
  5
30C
330
1F
100
AcDbEntity
  8
0
  6
Continuous
 62
     7
370
    25
100
AcDbCircle
 10
1.4402228719
 20
9.9808343065
 30
0.0
 40
0.0500000000000007
100
AcDbArc
 50
104.0647305315
 51
255.9352694685
  0
ARC
  5
30D
330
1F
100
AcDbEntity
  8
0
  6
Continuous
 62
     7
370
    25
100
AcDbCircle
 10
5.95
 20
8.8510073588
 30
0.0
 40
0.0499999999999991
100
AcDbArc
 50
255.9352694685
 51
0.0
  0
ARC
  5
30E
330
1F
100
AcDbEntity
  8
0
  6
Continuous
 62
     7
370
    25
100
AcDbCircle
 10
8.3600505063
 20
11.4340043065
 30
0.0
 40
0.0500000000000012
100
AcDbArc
 50
90.0
 51
225.0
  0
ARC
  5
30F
330
1F
100
AcDbEntity
  8
0
  6
Continuous
 62
     7
370
    25
100
AcDbCircle
 10
9.5272077939
 20
10.2668470189
 30
0.0
 40
0.0499999999999961
100
AcDbArc
 50
225.0
 51
315.0
  0
ARC
  5
310
330
1F
100
AcDbEntity
  8
0
  6
Continuous
 62
     7
370
    25
100
AcDbCircle
 10
10.6943650814
 20
11.4340043065
 30
0.0
 40
0.0500000000000012
100
AcDbArc
 50
315.0
 51
90.0
  0
ARC
  5
311
330
1F
100
AcDbEntity
  8
0
  6
Continuous
 62
     7
370
    25
100
AcDbCircle
 10
15.0227922061
 20
8.8168470189
 30
0.0
 40
0.0500000000000012
100
AcDbArc
 50
180.0
 51
315.0
  0
ARC
  5
312
330
1F
100
AcDbEntity
  8
0
  6
Continuous
 62
     7
370
    25
100
AcDbCircle
 10
16.1899494937
 20
9.9840043065
 30
0.0
 40
0.0499999999999924
100
AcDbArc
 50
315.0
 51
45.0
  0
ARC
  5
313
330
1F
100
AcDbEntity
  8
0
  6
Continuous
 62
     7
370
    25
100
AcDbCircle
 10
15.0227922061
 20
11.151161594
 30
0.0
 40
0.0500000000000062
100
AcDbArc
 50
45.0
 51
180.0
  0
ARC
  5
314
330
1F
100
AcDbEntity
  8
0
  6
Continuous
 62
     7
370
    25
100
AcDbCircle
 10
17.6399494937
 20
8.5340043065
 30
0.0
 40
0.0500000000000007
100
AcDbArc
 50
270.0
 51
45.0
  0
ARC
  5
315
330
1F
100
AcDbEntity
  8
0
  6
Continuous
 62
     7
370
    25
100
AcDbCircle
 10
16.4727922061
 20
9.701161594
 30
0.0
 40
0.0500000000000037
100
AcDbArc
 50
45.0
 51
135.0
  0
ARC
  5
316
330
1F
100
AcDbEntity
  8
0
  6
Continuous
 62
     7
370
    25
100
AcDbCircle
 10
15.3056349186
 20
8.5340043065
 30
0.0
 40
0.0499999999999989
100
AcDbArc
 50
135.0
 51
270.0
  0
ARC
  5
317
330
1F
100
AcDbEntity
  8
0
  6
Continuous
 62
     7
370
    25
100
AcDbCircle
 10
15.3056349186
 20
11.4340043065
 30
0.0
 40
0.0500000000000007
100
AcDbArc
 50
90.0
 51
225.0
  0
ARC
  5
318
330
1F
100
AcDbEntity
  8
0
  6
Continuous
 62
     7
370
    25
100
AcDbCircle
 10
16.4727922061
 20
10.2668470189
 30
0.0
 40
0.0500000000000037
100
AcDbArc
 50
225.0
 51
315.0
  0
ARC
  5
319
330
1F
100
AcDbEntity
  8
0
  6
Continuous
 62
     7
370
    25
100
AcDbCircle
 10
17.6399494937
 20
11.4340043065
 30
0.0
 40
0.0500000000000012
100
AcDbArc
 50
315.0
 51
90.0
  0
ARC
  5
31A
330
1F
100
AcDbEntity
  8
0
  6
Continuous
 62
     7
370
    25
100
AcDbCircle
 10
-4.3601989034
 20
11.4340043065
 30
0.0
 40
0.0500000000000008
100
AcDbArc
 50
90.0
 51
255.9352694685
  0
ARC
  5
31B
330
1F
100
AcDbEntity
  8
0
  6
Continuous
 62
     7
370
    25
100
AcDbCircle
 10
0.0
 20
10.8055580452
 30
0.0
 40
0.5000000000000018
100
AcDbArc
 50
255.9352694685
 51
284.0647305315
  0
ARC
  5
31C
330
1F
100
AcDbEntity
  8
0
  6
Continuous
 62
     7
370
    25
100
AcDbCircle
 10
4.3601989034
 20
11.4340043065
 30
0.0
 40
0.0499999999999997
100
AcDbArc
 50
284.0647305315
 51
90.0
  0
ARC
  5
31D
330
1F
100
AcDbEntity
  8
0
  6
Continuous
 62
     7
370
    25
100
AcDbCircle
 10
4.3601989034
 20
8.5276643065
 30
0.0
 40
0.050000000000001
100
AcDbArc
 50
270.0
 51
75.9352694685
  0
ARC
  5
31E
330
1F
100
AcDbEntity
  8
0
  6
Continuous
 62
     7
370
    25
100
AcDbCircle
 10
0.0
 20
9.1561105677
 30
0.0
 40
0.5000000000000319
100
AcDbArc
 50
75.9352694685
 51
104.0647305315
  0
ARC
  5
31F
330
1F
100
AcDbEntity
  8
0
  6
Continuous
 62
     7
370
    25
100
AcDbCircle
 10
-4.3601989034
 20
8.5276643065
 30
0.0
 40
0.0500000000000008
100
AcDbArc
 50
104.0647305315
 51
270.0
  0
ARC
  5
320
330
1F
100
AcDbEntity
  8
0
  6
Continuous
 62
     7
370
    25
100
AcDbCircle
 10
-5.95
 20
8.8510073588
 30
0.0
 40
0.0499999999999998
100
AcDbArc
 50
180.0
 51
284.0647305315
  0
ARC
  5
321
330
1F
100
AcDbEntity
  8
0
  6
Continuous
 62
     7
370
    25
100
AcDbCircle
 10
-1.4402228719
 20
9.9808343065
 30
0.0
 40
0.0499999999999988
100
AcDbArc
 50
284.0647305315
 51
75.9352694685
  0
ARC
  5
322
330
1F
100
AcDbEntity
  8
0
  6
Continuous
 62
     7
370
    25
100
AcDbCircle
 10
-5.95
 20
11.1106612541
 30
0.0
 40
0.0499999999999993
100
AcDbArc
 50
75.9352694685
 51
180.0
  0
ARC
  5
323
330
1F
100
AcDbEntity
  8
0
  6
Continuous
 62
     7
370
    25
100
AcDbCircle
 10
-16.4727922061
 20
9.701161594
 30
0.0
 40
0.0499999999999961
100
AcDbArc
 50
45.0
 51
135.0
  0
ARC
  5
324
330
1F
100
AcDbEntity
  8
0
  6
Continuous
 62
     7
370
    25
100
AcDbCircle
 10
-17.6399494937
 20
8.5340043065
 30
0.0
 40
0.0500000000000012
100
AcDbArc
 50
135.0
 51
270.0
  0
ARC
  5
325
330
1F
100
AcDbEntity
  8
0
  6
Continuous
 62
     7
370
    25
100
AcDbCircle
 10
-15.3056349186
 20
8.5340043065
 30
0.0
 40
0.0500000000000012
100
AcDbArc
 50
270.0
 51
45.0
  0
ARC
  5
326
330
1F
100
AcDbEntity
  8
0
  6
Continuous
 62
     7
370
    25
100
AcDbCircle
 10
-9.8100505063
 20
9.9840043065
 30
0.0
 40
0.0500000000000037
100
AcDbArc
 50
315.0
 51
45.0
  0
ARC
  5
327
330
1F
100
AcDbEntity
  8
0
  6
Continuous
 62
     7
370
    25
100
AcDbCircle
 10
-10.9772077939
 20
11.151161594
 30
0.0
 40
0.0500000000000012
100
AcDbArc
 50
45.0
 51
180.0
  0
ARC
  5
328
330
1F
100
AcDbEntity
  8
0
  6
Continuous
 62
     7
370
    25
100
AcDbCircle
 10
-10.9772077939
 20
8.8168470189
 30
0.0
 40
0.0500000000000012
100
AcDbArc
 50
180.0
 51
315.0
  0
ARC
  5
329
330
1F
100
AcDbEntity
  8
0
  6
Continuous
 62
     7
370
    25
100
AcDbCircle
 10
-10.6943650814
 20
11.4340043065
 30
0.0
 40
0.0500000000000025
100
AcDbArc
 50
90.0
 51
225.0
  0
ARC
  5
32A
330
1F
100
AcDbEntity
  8
0
  6
Continuous
 62
     7
370
    25
100
AcDbCircle
 10
-9.5272077939
 20
10.2668470189
 30
0.0
 40
0.0500000000000024
100
AcDbArc
 50
225.0
 51
315.0
  0
ARC
  5
32B
330
1F
100
AcDbEntity
  8
0
  6
Continuous
 62
     7
370
    25
100
AcDbCircle
 10
-8.3600505063
 20
11.4340043065
 30
0.0
 40
0.0500000000000012
100
AcDbArc
 50
315.0
 51
90.0
  0
ARC
  5
32C
330
1F
100
AcDbEntity
  8
0
  6
Continuous
 62
     7
370
    25
100
AcDbCircle
 10
-8.62366
 20
10.6047093878
 30
0.0
 40
0.0500000000000012
100
AcDbArc
 50
0.0
 51
135.0
  0
ARC
  5
32D
330
1F
100
AcDbEntity
  8
0
  6
Continuous
 62
     7
370
    25
100
AcDbCircle
 10
-9.2443650814
 20
9.9840043065
 30
0.0
 40
0.0500000000000087
100
AcDbArc
 50
135.0
 51
225.0
  0
ARC
  5
32E
330
1F
100
AcDbEntity
  8
0
  6
Continuous
 62
     7
370
    25
100
AcDbCircle
 10
-8.62366
 20
9.3632992251
 30
0.0
 40
0.0500000000000012
100
AcDbArc
 50
225.0
 51
0.0
  0
ARC
  5
32F
330
1F
100
AcDbEntity
  8
0
  6
Continuous
 62
     7
370
    25
100
AcDbCircle
 10
-17.6399494937
 20
11.4340043065
 30
0.0
 40
0.0500000000000043
100
AcDbArc
 50
90.0
 51
225.0
  0
ARC
  5
330
330
1F
100
AcDbEntity
  8
0
  6
Continuous
 62
     7
370
    25
100
AcDbCircle
 10
-16.4727922061
 20
10.2668470189
 30
0.0
 40
0.0499999999999974
100
AcDbArc
 50
225.0
 51
315.0
  0
ARC
  5
331
330
1F
100
AcDbEntity
  8
0
  6
Continuous
 62
     7
370
    25
100
AcDbCircle
 10
-15.3056349186
 20
11.4340043065
 30
0.0
 40
0.0500000000000025
100
AcDbArc
 50
315.0
 51
90.0
  0
ARC
  5
332
330
1F
100
AcDbEntity
  8
0
  6
Continuous
 62
     7
370
    25
100
AcDbCircle
 10
-9.5272077939
 20
9.701161594
 30
0.0
 40
0.0499999999999974
100
AcDbArc
 50
45.0
 51
135.0
  0
ARC
  5
333
330
1F
100
AcDbEntity
  8
0
  6
Continuous
 62
     7
370
    25
100
AcDbCircle
 10
-10.6943650814
 20
8.5340043065
 30
0.0
 40
0.0500000000000025
100
AcDbArc
 50
135.0
 51
270.0
  0
ARC
  5
334
330
1F
100
AcDbEntity
  8
0
  6
Continuous
 62
     7
370
    25
100
AcDbCircle
 10
-8.3600505063
 20
8.5340043065
 30
0.0
 40
0.0500000000000012
100
AcDbArc
 50
270.0
 51
45.0
  0
ARC
  5
335
330
1F
100
AcDbEntity
  8
0
  6
Continuous
 62
     7
370
    25
100
AcDbCircle
 10
-16.7556349186
 20
9.9840043065
 30
0.0
 40
0.0500000000000012
100
AcDbArc
 50
315.0
 51
45.0
  0
ARC
  5
336
330
1F
100
AcDbEntity
  8
0
  6
Continuous
 62
     7
370
    25
100
AcDbCircle
 10
-17.37634
 20
10.6047093878
 30
0.0
 40
0.0500000000000043
100
AcDbArc
 50
45.0
 51
180.0
  0
ARC
  5
337
330
1F
100
AcDbEntity
  8
0
  6
Continuous
 62
     7
370
    25
100
AcDbCircle
 10
-17.37634
 20
9.3632992251
 30
0.0
 40
0.0500000000000024
100
AcDbArc
 50
180.0
 51
315.0
  0
ARC
  5
338
330
1F
100
AcDbEntity
  8
0
  6
Continuous
 62
     7
370
    25
100
AcDbCircle
 10
-15.0227922061
 20
11.151161594
 30
0.0
 40
0.0500000000000007
100
AcDbArc
 50
360.0
 51
135.0
  0
ARC
  5
339
330
1F
100
AcDbEntity
  8
0
  6
Continuous
 62
     7
370
    25
100
AcDbCircle
 10
-16.1899494937
 20
9.9840043065
 30
0.0
 40
0.0500000000000125
100
AcDbArc
 50
135.0
 51
225.0
  0
ARC
  5
33A
330
1F
100
AcDbEntity
  8
0
  6
Continuous
 62
     7
370
    25
100
AcDbCircle
 10
-15.0227922061
 20
8.8168470189
 30
0.0
 40
0.0500000000000025
100
AcDbArc
 50
225.0
 51
360.0
  0
ARC
  5
33B
330
1F
100
AcDbEntity
  8
0
  6
Continuous
 62
     7
370
    25
100
AcDbCircle
 10
9.2443650814
 20
9.9840043065
 30
0.0
 40
0.0499999999999986
100
AcDbArc
 50
315.0
 51
45.0
  0
ARC
  5
33C
330
1F
100
AcDbEntity
  8
0
  6
Continuous
 62
     7
370
    25
100
AcDbCircle
 10
8.62366
 20
10.6047093878
 30
0.0
 40
0.0500000000000012
100
AcDbArc
 50
45.0
 51
180.0
  0
ARC
  5
33D
330
1F
100
AcDbEntity
  8
0
  6
Continuous
 62
     7
370
    25
100
AcDbCircle
 10
8.62366
 20
9.3632992251
 30
0.0
 40
0.0500000000000012
100
AcDbArc
 50
180.0
 51
315.0
  0
ARC
  5
33E
330
1F
100
AcDbEntity
  8
0
  6
Continuous
 62
     7
370
    25
100
AcDbCircle
 10
17.37634
 20
10.6047093878
 30
0.0
 40
0.0500000000000012
100
AcDbArc
 50
0.0
 51
135.0
  0
ARC
  5
33F
330
1F
100
AcDbEntity
  8
0
  6
Continuous
 62
     7
370
    25
100
AcDbCircle
 10
16.7556349186
 20
9.9840043065
 30
0.0
 40
0.0500000000000024
100
AcDbArc
 50
135.0
 51
225.0
  0
ARC
  5
340
330
1F
100
AcDbEntity
  8
0
  6
Continuous
 62
     7
370
    25
100
AcDbCircle
 10
17.37634
 20
9.3632992251
 30
0.0
 40
0.0500000000000024
100
AcDbArc
 50
225.0
 51
0.0
  0
ARC
  5
341
330
1F
100
AcDbEntity
  8
0
  6
Continuous
 62
     7
370
    25
100
AcDbCircle
 10
9.5272077939
 20
9.701161594
 30
0.0
 40
0.0500000000000024
100
AcDbArc
 50
45.0
 51
135.0
  0
ARC
  5
342
330
1F
100
AcDbEntity
  8
0
  6
Continuous
 62
     7
370
    25
100
AcDbCircle
 10
8.3600505063
 20
8.5340043065
 30
0.0
 40
0.0500000000000012
100
AcDbArc
 50
135.0
 51
270.0
  0
ARC
  5
343
330
1F
100
AcDbEntity
  8
0
  6
Continuous
 62
     7
370
    25
100
AcDbCircle
 10
10.6943650814
 20
8.5340043065
 30
0.0
 40
0.0500000000000012
100
AcDbArc
 50
270.0
 51
45.0
  0
ARC
  5
344
330
1F
100
AcDbEntity
  8
0
  6
Continuous
 62
     7
370
    25
100
AcDbCircle
 10
10.9772077939
 20
11.151161594
 30
0.0
 40
0.0500000000000007
100
AcDbArc
 50
0.0
 51
135.0
  0
ARC
  5
345
330
1F
100
AcDbEntity
  8
0
  6
Continuous
 62
     7
370
    25
100
AcDbCircle
 10
9.8100505063
 20
9.9840043065
 30
0.0
 40
0.0500000000000037
100
AcDbArc
 50
135.0
 51
225.0
  0
ARC
  5
346
330
1F
100
AcDbEntity
  8
0
  6
Continuous
 62
     7
370
    25
100
AcDbCircle
 10
10.9772077939
 20
8.8168470189
 30
0.0
 40
0.0500000000000012
100
AcDbArc
 50
225.0
 51
0.0
  0
ARC
  5
347
330
1F
100
AcDbEntity
  8
0
  6
Continuous
 62
     7
370
    25
100
AcDbCircle
 10
23.6113547539
 20
-6.07634
 30
0.0
 40
0.0500000000000034
100
AcDbArc
 50
270.0
 51
13.7858565048
  0
ARC
  5
348
330
1F
100
AcDbEntity
  8
0
  6
Continuous
 62
     7
370
    25
100
AcDbCircle
 10
22.4808343065
 20
-1.4687755609
 30
0.0
 40
0.0500000000000026
100
AcDbArc
 50
13.7858565047
 51
166.2141434953
  0
ARC
  5
349
330
1F
100
AcDbEntity
  8
0
  6
Continuous
 62
     7
370
    25
100
AcDbCircle
 10
21.350313859
 20
-6.07634
 30
0.0
 40
0.0499999999999998
100
AcDbArc
 50
166.2141434953
 51
270.0
  0
ARC
  5
34A
330
1F
100
AcDbEntity
  8
0
  6
Continuous
 62
     7
370
    25
100
AcDbCircle
 10
23.9340043065
 20
4.4537837622
 30
0.0
 40
0.0500000000000078
100
AcDbArc
 50
0.0
 51
166.2141434952
  0
ARC
  5
34B
330
1F
100
AcDbEntity
  8
0
  6
Continuous
 62
     7
370
    25
100
AcDbCircle
 10
23.3045633602
 20
0.0
 30
0.0
 40
0.5000000000000708
100
AcDbArc
 50
166.2141434953
 51
193.7858565047
  0
ARC
  5
34C
330
1F
100
AcDbEntity
  8
0
  6
Continuous
 62
     7
370
    25
100
AcDbCircle
 10
23.9340043065
 20
-4.4537837622
 30
0.0
 40
0.0500000000000043
100
AcDbArc
 50
193.7858565048
 51
360.0
  0
ARC
  5
34D
330
1F
100
AcDbEntity
  8
0
  6
Continuous
 62
     7
370
    25
100
AcDbCircle
 10
21.0276643065
 20
-4.4537837622
 30
0.0
 40
0.0500000000000017
100
AcDbArc
 50
180.0
 51
346.2141434953
  0
ARC
  5
34E
330
1F
100
AcDbEntity
  8
0
  6
Continuous
 62
     7
370
    25
100
AcDbCircle
 10
21.6571052527
 20
0.0
 30
0.0
 40
0.5000000000000329
100
AcDbArc
 50
346.2141434953
 51
13.7858565047
  0
ARC
  5
34F
330
1F
100
AcDbEntity
  8
0
  6
Continuous
 62
     7
370
    25
100
AcDbCircle
 10
21.0276643065
 20
4.4537837622
 30
0.0
 40
0.0500000000000007
100
AcDbArc
 50
13.7858565047
 51
180.0
  0
ARC
  5
350
330
1F
100
AcDbEntity
  8
0
  6
Continuous
 62
     7
370
    25
100
AcDbCircle
 10
21.350313859
 20
6.07634
 30
0.0
 40
0.0500000000000019
100
AcDbArc
 50
90.0
 51
193.7858565047
  0
ARC
  5
351
330
1F
100
AcDbEntity
  8
0
  6
Continuous
 62
     7
370
    25
100
AcDbCircle
 10
22.4808343065
 20
1.4687755609
 30
0.0
 40
0.050000000000003
100
AcDbArc
 50
193.7858565048
 51
346.2141434953
  0
ARC
  5
352
330
1F
100
AcDbEntity
  8
0
  6
Continuous
 62
     7
370
    25
100
AcDbCircle
 10
23.6113547539
 20
6.07634
 30
0.0
 40
0.0499999999999945
100
AcDbArc
 50
346.2141434952
 51
90.0
  0
ARC
  5
353
330
1F
100
AcDbEntity
  8
0
  6
Continuous
 62
     7
370
    25
100
AcDbCircle
 10
-21.350313859
 20
-6.07634
 30
0.0
 40
0.0499999999999989
100
AcDbArc
 50
270.0
 51
13.7858565047
  0
ARC
  5
354
330
1F
100
AcDbEntity
  8
0
  6
Continuous
 62
     7
370
    25
100
AcDbCircle
 10
-22.4808343065
 20
-1.4687755609
 30
0.0
 40
0.0500000000000025
100
AcDbArc
 50
13.7858565047
 51
166.2141434953
  0
ARC
  5
355
330
1F
100
AcDbEntity
  8
0
  6
Continuous
 62
     7
370
    25
100
AcDbCircle
 10
-23.6113547539
 20
-6.07634
 30
0.0
 40
0.0499999999999972
100
AcDbArc
 50
166.2141434952
 51
270.0
  0
ARC
  5
356
330
1F
100
AcDbEntity
  8
0
  6
Continuous
 62
     7
370
    25
100
AcDbCircle
 10
-23.9340043065
 20
-4.4537837622
 30
0.0
 40
0.0500000000000007
100
AcDbArc
 50
180.0
 51
346.2141434952
  0
ARC
  5
357
330
1F
100
AcDbEntity
  8
0
  6
Continuous
 62
     7
370
    25
100
AcDbCircle
 10
-23.3045633602
 20
0.0
 30
0.0
 40
0.4999999999999984
100
AcDbArc
 50
346.2141434953
 51
13.7858565047
  0
ARC
  5
358
330
1F
100
AcDbEntity
  8
0
  6
Continuous
 62
     7
370
    25
100
AcDbCircle
 10
-23.9340043065
 20
4.4537837622
 30
0.0
 40
0.0500000000000043
100
AcDbArc
 50
13.7858565048
 51
180.0
  0
ARC
  5
359
330
1F
100
AcDbEntity
  8
0
  6
Continuous
 62
     7
370
    25
100
AcDbCircle
 10
-21.0276643065
 20
4.4537837622
 30
0.0
 40
0.0500000000000024
100
AcDbArc
 50
360.0
 51
166.2141434953
  0
ARC
  5
35A
330
1F
100
AcDbEntity
  8
0
  6
Continuous
 62
     7
370
    25
100
AcDbCircle
 10
-21.6571052527
 20
0.0
 30
0.0
 40
0.5000000000000345
100
AcDbArc
 50
166.2141434953
 51
193.7858565047
  0
ARC
  5
35B
330
1F
100
AcDbEntity
  8
0
  6
Continuous
 62
     7
370
    25
100
AcDbCircle
 10
-21.0276643065
 20
-4.4537837622
 30
0.0
 40
0.0499999999999987
100
AcDbArc
 50
193.7858565047
 51
0.0
  0
ARC
  5
35C
330
1F
100
AcDbEntity
  8
0
  6
Continuous
 62
     7
370
    25
100
AcDbCircle
 10
-23.6113547539
 20
6.07634
 30
0.0
 40
0.0499999999999991
100
AcDbArc
 50
90.0
 51
193.7858565047
  0
ARC
  5
35D
330
1F
100
AcDbEntity
  8
0
  6
Continuous
 62
     7
370
    25
100
AcDbCircle
 10
-22.4808343065
 20
1.4687755609
 30
0.0
 40
0.0500000000000023
100
AcDbArc
 50
193.7858565047
 51
346.2141434953
  0
ARC
  5
35E
330
1F
100
AcDbEntity
  8
0
  6
Continuous
 62
     7
370
    25
100
AcDbCircle
 10
-21.350313859
 20
6.07634
 30
0.0
 40
0.0500000000000019
100
AcDbArc
 50
346.2141434953
 51
90.0
  0
ARC
  5
35F
330
1F
100
AcDbEntity
  8
0
  6
Continuous
 62
     7
370
    25
100
AcDbCircle
 10
-8.6595482095
 20
-4.92634
 30
0.0
 40
0.2000000000000002
100
AcDbArc
 50
270.0
 51
44.2851935423
  0
ARC
  5
360
330
1F
100
AcDbEntity
  8
0
  6
Continuous
 62
     7
370
    25
100
AcDbCircle
 10
-12.62634
 20
-0.8593153146
 30
0.0
 40
0.2000000000000031
100
AcDbArc
 50
44.2851935423
 51
135.7148064577
  0
ARC
  5
361
330
1F
100
AcDbEntity
  8
0
  6
Continuous
 62
     7
370
    25
100
AcDbCircle
 10
-16.5931317905
 20
-4.92634
 30
0.0
 40
0.1999999999999993
100
AcDbArc
 50
135.7148064577
 51
270.0
  0
ARC
  5
362
330
1F
100
AcDbEntity
  8
0
  6
Continuous
 62
     7
370
    25
100
AcDbCircle
 10
8.6595482095
 20
4.92634
 30
0.0
 40
0.2000000000000011
100
AcDbArc
 50
90.0
 51
224.2851935423
  0
ARC
  5
363
330
1F
100
AcDbEntity
  8
0
  6
Continuous
 62
     7
370
    25
100
AcDbCircle
 10
12.62634
 20
0.8593153146
 30
0.0
 40
0.1999999999999995
100
AcDbArc
 50
224.2851935423
 51
315.7148064577
  0
ARC
  5
364
330
1F
100
AcDbEntity
  8
0
  6
Continuous
 62
     7
370
    25
100
AcDbCircle
 10
16.5931317905
 20
4.92634
 30
0.0
 40
0.2000000000000024
100
AcDbArc
 50
315.7148064577
 51
90.0
  0
ARC
  5
365
330
1F
100
AcDbEntity
  8
0
  6
Continuous
 62
     7
370
    25
100
AcDbCircle
 10
7.82634
 20
-4.0619710854
 30
0.0
 40
0.200000000000002
100
AcDbArc
 50
180.0
 51
315.7148064577
  0
ARC
  5
366
330
1F
100
AcDbEntity
  8
0
  6
Continuous
 62
     7
370
    25
100
AcDbCircle
 10
11.7882027378
 20
0.0
 30
0.0
 40
0.1999999999999985
100
AcDbArc
 50
315.7148064577
 51
44.2851935423
  0
ARC
  5
367
330
1F
100
AcDbEntity
  8
0
  6
Continuous
 62
     7
370
    25
100
AcDbCircle
 10
7.82634
 20
4.0619710854
 30
0.0
 40
0.2000000000000002
100
AcDbArc
 50
44.2851935423
 51
180.0
  0
ARC
  5
368
330
1F
100
AcDbEntity
  8
0
  6
Continuous
 62
     7
370
    25
100
AcDbCircle
 10
17.42634
 20
4.0619710854
 30
0.0
 40
0.1999999999999993
100
AcDbArc
 50
0.0
 51
135.7148064577
  0
ARC
  5
369
330
1F
100
AcDbEntity
  8
0
  6
Continuous
 62
     7
370
    25
100
AcDbCircle
 10
13.4644772622
 20
0.0
 30
0.0
 40
0.2000000000000033
100
AcDbArc
 50
135.7148064577
 51
224.2851935423
  0
ARC
  5
36A
330
1F
100
AcDbEntity
  8
0
  6
Continuous
 62
     7
370
    25
100
AcDbCircle
 10
17.42634
 20
-4.0619710854
 30
0.0
 40
0.1999999999999993
100
AcDbArc
 50
224.2851935423
 51
0.0
  0
ARC
  5
36B
330
1F
100
AcDbEntity
  8
0
  6
Continuous
 62
     7
370
    25
100
AcDbCircle
 10
4.8422468161
 20
-4.92634
 30
0.0
 40
0.1999999999999994
100
AcDbArc
 50
270.0
 51
49.489754158
  0
ARC
  5
36C
330
1F
100
AcDbEntity
  8
0
  6
Continuous
 62
     7
370
    25
100
AcDbCircle
 10
0.0
 20
-0.7891727428
 30
0.0
 40
0.1999999999999983
100
AcDbArc
 50
49.489754158
 51
130.510245842
  0
ARC
  5
36D
330
1F
100
AcDbEntity
  8
0
  6
Continuous
 62
     7
370
    25
100
AcDbCircle
 10
-4.8422468161
 20
-4.92634
 30
0.0
 40
0.2000000000000015
100
AcDbArc
 50
130.510245842
 51
270.0
  0
ARC
  5
36E
330
1F
100
AcDbEntity
  8
0
  6
Continuous
 62
     7
370
    25
100
AcDbCircle
 10
-7.82634
 20
4.0619710854
 30
0.0
 40
0.2000000000000002
100
AcDbArc
 50
0.0
 51
135.7148064577
  0
ARC
  5
36F
330
1F
100
AcDbEntity
  8
0
  6
Continuous
 62
     7
370
    25
100
AcDbCircle
 10
-11.7882027378
 20
0.0
 30
0.0
 40
0.1999999999999993
100
AcDbArc
 50
135.7148064577
 51
224.2851935423
  0
ARC
  5
370
330
1F
100
AcDbEntity
  8
0
  6
Continuous
 62
     7
370
    25
100
AcDbCircle
 10
-7.82634
 20
-4.0619710854
 30
0.0
 40
0.2000000000000004
100
AcDbArc
 50
224.2851935423
 51
0.0
  0
ARC
  5
371
330
1F
100
AcDbEntity
  8
0
  6
Continuous
 62
     7
370
    25
100
AcDbCircle
 10
-17.42634
 20
-4.0619710854
 30
0.0
 40
0.2000000000000028
100
AcDbArc
 50
180.0
 51
315.7148064577
  0
ARC
  5
372
330
1F
100
AcDbEntity
  8
0
  6
Continuous
 62
     7
370
    25
100
AcDbCircle
 10
-13.4644772622
 20
0.0
 30
0.0
 40
0.2
100
AcDbArc
 50
315.7148064577
 51
44.2851935423
  0
ARC
  5
373
330
1F
100
AcDbEntity
  8
0
  6
Continuous
 62
     7
370
    25
100
AcDbCircle
 10
-17.42634
 20
4.0619710854
 30
0.0
 40
0.2000000000000028
100
AcDbArc
 50
44.2851935423
 51
180.0
  0
ARC
  5
374
330
1F
100
AcDbEntity
  8
0
  6
Continuous
 62
     7
370
    25
100
AcDbCircle
 10
-16.5931317905
 20
4.92634
 30
0.0
 40
0.1999999999999993
100
AcDbArc
 50
90.0
 51
224.2851935423
  0
ARC
  5
375
330
1F
100
AcDbEntity
  8
0
  6
Continuous
 62
     7
370
    25
100
AcDbCircle
 10
-12.62634
 20
0.8593153146
 30
0.0
 40
0.2000000000000011
100
AcDbArc
 50
224.2851935423
 51
315.7148064577
  0
ARC
  5
376
330
1F
100
AcDbEntity
  8
0
  6
Continuous
 62
     7
370
    25
100
AcDbCircle
 10
-8.6595482095
 20
4.92634
 30
0.0
 40
0.2000000000000002
100
AcDbArc
 50
315.7148064577
 51
90.0
  0
ARC
  5
377
330
1F
100
AcDbEntity
  8
0
  6
Continuous
 62
     7
370
    25
100
AcDbCircle
 10
16.5931317905
 20
-4.92634
 30
0.0
 40
0.1999999999999993
100
AcDbArc
 50
270.0
 51
44.2851935423
  0
ARC
  5
378
330
1F
100
AcDbEntity
  8
0
  6
Continuous
 62
     7
370
    25
100
AcDbCircle
 10
12.62634
 20
-0.8593153146
 30
0.0
 40
0.1999999999999988
100
AcDbArc
 50
44.2851935423
 51
135.7148064577
  0
ARC
  5
379
330
1F
100
AcDbEntity
  8
0
  6
Continuous
 62
     7
370
    25
100
AcDbCircle
 10
8.6595482095
 20
-4.92634
 30
0.0
 40
0.1999999999999984
100
AcDbArc
 50
135.7148064577
 51
270.0
  0
ARC
  5
37A
330
1F
100
AcDbEntity
  8
0
  6
Continuous
 62
     7
370
    25
100
AcDbCircle
 10
5.8
 20
4.1662892572
 30
0.0
 40
0.1999999999999993
100
AcDbArc
 50
0.0
 51
130.510245842
  0
ARC
  5
37B
330
1F
100
AcDbEntity
  8
0
  6
Continuous
 62
     7
370
    25
100
AcDbCircle
 10
0.9236680471
 20
0.0
 30
0.0
 40
0.1999999999999985
100
AcDbArc
 50
130.510245842
 51
229.489754158
  0
ARC
  5
37C
330
1F
100
AcDbEntity
  8
0
  6
Continuous
 62
     7
370
    25
100
AcDbCircle
 10
5.8
 20
-4.1662892572
 30
0.0
 40
0.1999999999999996
100
AcDbArc
 50
229.489754158
 51
0.0
  0
ARC
  5
37D
330
1F
100
AcDbEntity
  8
0
  6
Continuous
 62
     7
370
    25
100
AcDbCircle
 10
-5.8
 20
-4.1662892572
 30
0.0
 40
0.2000000000000011
100
AcDbArc
 50
180.0
 51
310.510245842
  0
ARC
  5
37E
330
1F
100
AcDbEntity
  8
0
  6
Continuous
 62
     7
370
    25
100
AcDbCircle
 10
-0.9236680471
 20
0.0
 30
0.0
 40
0.1999999999999999
100
AcDbArc
 50
310.510245842
 51
49.489754158
  0
ARC
  5
37F
330
1F
100
AcDbEntity
  8
0
  6
Continuous
 62
     7
370
    25
100
AcDbCircle
 10
-5.8
 20
4.1662892572
 30
0.0
 40
0.2000000000000002
100
AcDbArc
 50
49.489754158
 51
180.0
  0
ARC
  5
380
330
1F
100
AcDbEntity
  8
0
  6
Continuous
 62
     7
370
    25
100
AcDbCircle
 10
-4.8422468161
 20
4.92634
 30
0.0
 40
0.200000000000002
100
AcDbArc
 50
90.0
 51
229.489754158
  0
ARC
  5
381
330
1F
100
AcDbEntity
  8
0
  6
Continuous
 62
     7
370
    25
100
AcDbCircle
 10
0.0
 20
0.7891727428
 30
0.0
 40
0.1999999999999975
100
AcDbArc
 50
229.489754158
 51
310.510245842
  0
ARC
  5
382
330
1F
100
AcDbEntity
  8
0
  6
Continuous
 62
     7
370
    25
100
AcDbCircle
 10
4.8422468161
 20
4.92634
 30
0.0
 40
0.2000000000000012
100
AcDbArc
 50
310.510245842
 51
90.0
  0
ENDSEC
  0
SECTION
  2
OBJECTS
  0
DICTIONARY
  5
C
330
0
100
AcDbDictionary
281
     1
  3
ACAD_GROUP
350
D
  3
ACAD_LAYOUT
350
1A
  3
ACAD_MLINESTYLE
350
17
  3
ACAD_PLOTSETTINGS
350
19
  3
ACAD_PLOTSTYLENAME
350
E
  3
ACAD_SCALELIST
350
47
  0
DICTIONARY
  5
D
102
{ACAD_REACTORS
330
C
102
}
330
C
100
AcDbDictionary
281
     1
  0
DICTIONARY
  5
1A
102
{ACAD_REACTORS
330
C
102
}
330
C
100
AcDbDictionary
281
     1
  3
Layout1
350
1E
  3
Layout2
350
26
  3
Model
350
22
  0
DICTIONARY
  5
17
102
{ACAD_REACTORS
330
C
102
}
330
C
100
AcDbDictionary
281
     1
  3
Standard
350
18
  0
DICTIONARY
  5
19
102
{ACAD_REACTORS
330
C
102
}
330
C
100
AcDbDictionary
281
     1
  0
ACDBDICTIONARYWDFLT
  5
E
102
{ACAD_REACTORS
330
C
102
}
330
C
100
AcDbDictionary
281
     1
  3
Normal
350
F
100
AcDbDictionaryWithDefault
340
F
  0
DICTIONARY
  5
47
102
{ACAD_REACTORS
330
C
102
}
330
C
100
AcDbDictionary
281
     1
  3
A0
350
48
  3
A1
350
49
  3
A2
350
4A
  3
A3
350
4B
  3
A4
350
4C
  3
A5
350
4D
  3
A6
350
4E
  3
A7
350
4F
  3
A8
350
50
  3
A9
350
51
  3
B0
350
52
  3
B1
350
53
  3
B2
350
54
  3
B3
350
55
  3
B4
350
56
  3
B5
350
57
  3
B6
350
58
  3
B7
350
59
  3
B8
350
5A
  3
B9
350
5B
  3
C0
350
5C
  3
C1
350
5D
  3
C2
350
5E
  3
C3
350
5F
  3
C4
350
60
  3
C5
350
61
  3
C6
350
62
  3
C7
350
63
  3
C8
350
64
  3
C9
350
65
  3
D0
350
66
  3
D1
350
67
  3
D2
350
68
  0
LAYOUT
  5
1E
102
{ACAD_REACTORS
330
1A
102
}
330
1A
100
AcDbPlotSettings
  1

  2
none_device
  4

  6

 40
0.0
 41
0.0
 42
0.0
 43
0.0
 44
0.0
 45
0.0
 46
0.0
 47
0.0
 48
0.0
 49
0.0
140
0.0
141
0.0
142
1.0
143
1.0
 70
   688
 72
     1
 73
     0
 74
     5
  7

 75
    16
147
1.0
148
0.0
149
0.0
100
AcDbLayout
  1
Layout1
 70
     1
 71
     1
 10
0.0
 20
0.0
 11
420.0
 21
297.0
 12
0.0
 22
0.0
 32
0.0
 14
1.0000000000E+20
 24
1.0000000000E+20
 34
1.0000000000E+20
 15
-1.0000000000E+20
 25
-1.0000000000E+20
 35
-1.0000000000E+20
146
0.0
 13
0.0
 23
0.0
 33
0.0
 16
1.0
 26
0.0
 36
0.0
 17
0.0
 27
1.0
 37
0.0
 76
     0
330
1B
  0
LAYOUT
  5
26
102
{ACAD_REACTORS
330
1A
102
}
330
1A
100
AcDbPlotSettings
  1

  2
none_device
  4

  6

 40
0.0
 41
0.0
 42
0.0
 43
0.0
 44
0.0
 45
0.0
 46
0.0
 47
0.0
 48
0.0
 49
0.0
140
0.0
141
0.0
142
1.0
143
1.0
 70
   688
 72
     1
 73
     0
 74
     5
  7

 75
    16
147
1.0
148
0.0
149
0.0
100
AcDbLayout
  1
Layout2
 70
     1
 71
     2
 10
0.0
 20
0.0
 11
0.0
 21
0.0
 12
0.0
 22
0.0
 32
0.0
 14
0.0
 24
0.0
 34
0.0
 15
0.0
 25
0.0
 35
0.0
146
0.0
 13
0.0
 23
0.0
 33
0.0
 16
1.0
 26
0.0
 36
0.0
 17
0.0
 27
1.0
 37
0.0
 76
     0
330
23
  0
LAYOUT
  5
22
102
{ACAD_REACTORS
330
1A
102
}
330
1A
100
AcDbPlotSettings
  1

  2
none_device
  4
ANSI_A_(11.00_x_8.50_Inches)
  6

 40
6.35
 41
19.05
 42
6.35000508
 43
19.05000254
 44
279.4
 45
215.9
 46
133.34999746
 47
88.89999873
 48
0.0
 49
0.0
140
0.0
141
0.0
142
0.2179394437
143
1.0
 70
  1696
 72
     0
 73
     0
 74
     0
  7

 75
     0
147
0.0179189148
148
-1300.4909072572
149
0.0
100
AcDbLayout
  1
Model
 70
     1
 71
     0
 10
0.0
 20
0.0
 11
420.0
 21
297.0
 12
0.0
 22
0.0
 32
0.0
 14
-24.9840043065
 24
-12.4840043065
 34
0.0
 15
24.9840043065
 25
12.4840043065
 35
0.0
146
0.0
 13
0.0
 23
0.0
 33
0.0
 16
1.0
 26
0.0
 36
0.0
 17
0.0
 27
1.0
 37
0.0
 76
     0
330
1F
331
29
  0
MLINESTYLE
  5
18
102
{ACAD_REACTORS
330
17
102
}
330
17
100
AcDbMlineStyle
  2
Standard
 70
     0
  3

 62
   256
 51
90.0
 52
90.0
 71
     2
 49
0.5
 62
   256
  6
BYLAYER
 49
-0.5
 62
   256
  6
BYLAYER
  0
ACDBPLACEHOLDER
  5
F
102
{ACAD_REACTORS
330
E
102
}
330
E
  0
SCALE
  5
48
102
{ACAD_REACTORS
330
47
102
}
330
47
100
AcDbScale
 70
     0
300
1:1
140
1.0
141
1.0
290
     1
  0
SCALE
  5
49
102
{ACAD_REACTORS
330
47
102
}
330
47
100
AcDbScale
 70
     0
300
1:2
140
1.0
141
2.0
290
     0
  0
SCALE
  5
4A
102
{ACAD_REACTORS
330
47
102
}
330
47
100
AcDbScale
 70
     0
300
1:4
140
1.0
141
4.0
290
     0
  0
SCALE
  5
4B
102
{ACAD_REACTORS
330
47
102
}
330
47
100
AcDbScale
 70
     0
300
1:5
140
1.0
141
5.0
290
     0
  0
SCALE
  5
4C
102
{ACAD_REACTORS
330
47
102
}
330
47
100
AcDbScale
 70
     0
300
1:8
140
1.0
141
8.0
290
     0
  0
SCALE
  5
4D
102
{ACAD_REACTORS
330
47
102
}
330
47
100
AcDbScale
 70
     0
300
1:10
140
1.0
141
10.0
290
     0
  0
SCALE
  5
4E
102
{ACAD_REACTORS
330
47
102
}
330
47
100
AcDbScale
 70
     0
300
1:16
140
1.0
141
16.0
290
     0
  0
SCALE
  5
4F
102
{ACAD_REACTORS
330
47
102
}
330
47
100
AcDbScale
 70
     0
300
1:20
140
1.0
141
20.0
290
     0
  0
SCALE
  5
50
102
{ACAD_REACTORS
330
47
102
}
330
47
100
AcDbScale
 70
     0
300
1:30
140
1.0
141
30.0
290
     0
  0
SCALE
  5
51
102
{ACAD_REACTORS
330
47
102
}
330
47
100
AcDbScale
 70
     0
300
1:40
140
1.0
141
40.0
290
     0
  0
SCALE
  5
52
102
{ACAD_REACTORS
330
47
102
}
330
47
100
AcDbScale
 70
     0
300
1:50
140
1.0
141
50.0
290
     0
  0
SCALE
  5
53
102
{ACAD_REACTORS
330
47
102
}
330
47
100
AcDbScale
 70
     0
300
1:100
140
1.0
141
100.0
290
     0
  0
SCALE
  5
54
102
{ACAD_REACTORS
330
47
102
}
330
47
100
AcDbScale
 70
     0
300
2:1
140
2.0
141
1.0
290
     0
  0
SCALE
  5
55
102
{ACAD_REACTORS
330
47
102
}
330
47
100
AcDbScale
 70
     0
300
4:1
140
4.0
141
1.0
290
     0
  0
SCALE
  5
56
102
{ACAD_REACTORS
330
47
102
}
330
47
100
AcDbScale
 70
     0
300
8:1
140
8.0
141
1.0
290
     0
  0
SCALE
  5
57
102
{ACAD_REACTORS
330
47
102
}
330
47
100
AcDbScale
 70
     0
300
10:1
140
10.0
141
1.0
290
     0
  0
SCALE
  5
58
102
{ACAD_REACTORS
330
47
102
}
330
47
100
AcDbScale
 70
     0
300
100:1
140
100.0
141
1.0
290
     0
  0
SCALE
  5
59
102
{ACAD_REACTORS
330
47
102
}
330
47
100
AcDbScale
 70
     0
300
1/128" = 1'-0"
140
0.0078125
141
12.0
290
     0
  0
SCALE
  5
5A
102
{ACAD_REACTORS
330
47
102
}
330
47
100
AcDbScale
 70
     0
300
1/64" = 1'-0"
140
0.015625
141
12.0
290
     0
  0
SCALE
  5
5B
102
{ACAD_REACTORS
330
47
102
}
330
47
100
AcDbScale
 70
     0
300
1/32" = 1'-0"
140
0.03125
141
12.0
290
     0
  0
SCALE
  5
5C
102
{ACAD_REACTORS
330
47
102
}
330
47
100
AcDbScale
 70
     0
300
1/16" = 1'-0"
140
0.0625
141
12.0
290
     0
  0
SCALE
  5
5D
102
{ACAD_REACTORS
330
47
102
}
330
47
100
AcDbScale
 70
     0
300
3/32" = 1'-0"
140
0.09375
141
12.0
290
     0
  0
SCALE
  5
5E
102
{ACAD_REACTORS
330
47
102
}
330
47
100
AcDbScale
 70
     0
300
1/8" = 1'-0"
140
0.125
141
12.0
290
     0
  0
SCALE
  5
5F
102
{ACAD_REACTORS
330
47
102
}
330
47
100
AcDbScale
 70
     0
300
3/16" = 1'-0"
140
0.1875
141
12.0
290
     0
  0
SCALE
  5
60
102
{ACAD_REACTORS
330
47
102
}
330
47
100
AcDbScale
 70
     0
300
1/4" = 1'-0"
140
0.25
141
12.0
290
     0
  0
SCALE
  5
61
102
{ACAD_REACTORS
330
47
102
}
330
47
100
AcDbScale
 70
     0
300
3/8" = 1'-0"
140
0.375
141
12.0
290
     0
  0
SCALE
  5
62
102
{ACAD_REACTORS
330
47
102
}
330
47
100
AcDbScale
 70
     0
300
1/2" = 1'-0"
140
0.5
141
12.0
290
     0
  0
SCALE
  5
63
102
{ACAD_REACTORS
330
47
102
}
330
47
100
AcDbScale
 70
     0
300
3/4" = 1'-0"
140
0.75
141
12.0
290
     0
  0
SCALE
  5
64
102
{ACAD_REACTORS
330
47
102
}
330
47
100
AcDbScale
 70
     0
300
1" = 1'-0"
140
1.0
141
12.0
290
     0
  0
SCALE
  5
65
102
{ACAD_REACTORS
330
47
102
}
330
47
100
AcDbScale
 70
     0
300
1-1/2" = 1'-0"
140
1.5
141
12.0
290
     0
  0
SCALE
  5
66
102
{ACAD_REACTORS
330
47
102
}
330
47
100
AcDbScale
 70
     0
300
3" = 1'-0"
140
3.0
141
12.0
290
     0
  0
SCALE
  5
67
102
{ACAD_REACTORS
330
47
102
}
330
47
100
AcDbScale
 70
     0
300
6" = 1'-0"
140
6.0
141
12.0
290
     0
  0
SCALE
  5
68
102
{ACAD_REACTORS
330
47
102
}
330
47
100
AcDbScale
 70
     0
300
1'-0" = 1'-0"
140
12.0
141
12.0
290
     0
  0
ENDSEC
  0
EOF
